<?xml version="1.0" encoding="utf-8"?>
<!-- Generator: Adobe Illustrator 24.2.3, SVG Export Plug-In . SVG Version: 6.00 Build 0)  -->
<svg version="1.1" id="Layer_1" xmlns="http://www.w3.org/2000/svg" xmlns:xlink="http://www.w3.org/1999/xlink" x="0px" y="0px"
	 viewBox="0 0 536 536" style="enable-background:new 0 0 536 536;" xml:space="preserve">
<style type="text/css">
	.st0{fill:#EFEFEF;}
	.st1{fill:#38474F;}
	.st2{fill:#455A64;}
	.st3{fill:#7092A5;}
	.st4{fill:#F8F8F8;}
	.st5{fill:#53697A;}
	.st6{fill:#FDA7A6;}
	.st7{fill:#DFDFDE;}
	.st8{fill:#FEFEFE;}
	.st9{fill:#495B68;}
</style>
<g>
	<path class="st0" d="M460.3,240.9c3.2,1.8,6,4,9,6.1c4.7,3.4,9.2,6.9,13.6,10.8c4.9,4.5,9.7,9.2,14.1,14.2
		c3.8,4.4,7.3,9.1,10.5,13.9c4.9,7.5,8.9,15.4,11.7,24c1.9,5.7,3.2,11.6,3.9,17.5c0.6,4.5,0.9,9.2,0.6,13.8
		c-0.5,7.5-1.8,14.9-4,22.1c-1.4,4.4-3,8.8-5,12.9c-3,6.1-6.5,12.1-10.6,17.5c-3.8,5-7.8,9.9-12.2,14.4c-3.9,4-8,7.7-12.2,11.3
		c-6,5.3-12.5,9.8-19.1,14.2c-4.4,2.9-9.1,5.6-13.7,8.2c-4.8,2.7-9.8,5.1-14.7,7.6c-6.1,3-12.3,5.7-18.5,8.1
		c-5.4,2.1-10.7,4.2-16.2,6c-9.7,3.3-19.6,6-29.7,8.4c-8.9,2.2-17.8,3.9-26.8,5.5c-6.1,1.1-12.3,1.9-18.5,2.7
		c-4.5,0.5-8.9,0.9-13.4,1.3c-4.8,0.4-9.5,0.8-14.2,1.1c-5.8,0.4-11.6,0.4-17.4,0.6c-3,0.1-6,0.2-9,0.2c-5,0-10-0.3-15.1-0.3
		c-4.9-0.1-9.8-0.4-14.7-0.8c-4.3-0.3-8.7-0.6-13-1.1c-6.9-0.8-13.8-1.6-20.7-2.7c-12.3-1.9-24.5-4.2-36.6-7.2
		c-10.3-2.6-20.6-5.6-30.7-9.2c-8.6-3-17-6.4-25.3-10.2c-8.6-4-17-8.4-25.3-13.2c-8-4.6-15.4-9.9-22.7-15.5
		c-4.1-3.2-7.9-6.6-11.6-10.1c-2.4-2.3-4.8-4.7-7.1-7.1c-6.5-7-12.2-14.4-16.9-22.7c-3.2-5.6-5.9-11.4-8-17.5
		c-1.8-5.4-3.3-11-4-16.7c-0.6-4.9-1-9.9-0.8-14.8c0.2-4.3,0.7-8.6,1.5-12.9c1.2-6.4,3.2-12.6,5.6-18.5c2.3-5.5,5-10.8,8.3-15.9
		c0.3-0.4,0.5-0.8,0.6-1.2c4.8,1.8,9.6,3.5,14.2,5.9c4.2,2.1,8,4.8,11.3,8.2c-1.9,1.3-3.7,2.6-5.2,4.4c-3.4,4-3.2,9.2,0.3,13.1
		c3.3,3.7,7.5,5.9,12,7.5c9.1,3.2,18.5,4,28.1,3.3c4.6-0.3,9.1-1,13.5-2.3c5.8-1.7,11.2-3.9,15.3-8.5c4.4-5,3.2-10.8-1.4-14.9
		c-4.1-3.6-9-5.6-14.2-7.1c-2-0.6-4-1.2-6.2-1.3c-1.2-1.5-1.1-3.3-1.1-5c0.8-0.1,0.8-0.8,0.9-1.3c2.3-13.3,4.6-26.6,6.8-40
		c1.2-7.7,2.9-15.4,2.2-23.3c0-0.1,0-0.1,0-0.1c0.8-0.1,1.5-0.4,2.3-0.8c3.3-1.5,6.6-3,9.9-4.4c5.5-2.3,11.1-4.4,16.7-6.4
		c0.1,0.2,0.2,0.4,0.3,0.6c5.9,21.3,11.8,42.5,17.8,63.8c0.2,0.7,0.4,1.3,0.9,1.8c1.1,2,2.5,3.9,3.8,5.8c3.4,5,6.8,10,10.1,14.9
		c-4,2.3-8.1,4.7-12.2,7c-5.1,2.9-10.2,5.9-15.3,8.8c-5.1,2.9-10.2,5.9-15.3,8.8c-5,2.9-10,5.8-14.9,8.6c-5.1,2.9-10.2,5.9-15.3,8.9
		c-5.4,3.2-10.8,6.5-16.9,8.2c-2.4,0.7-3,2.5-1.5,4.5c1.8,2.4,3.9,4.5,6.4,6.3c6,4.3,12.6,7.6,18.9,11.4c5.3,3.1,10.6,6.1,15.9,9.1
		c6.1,3.5,12.2,7,18.3,10.6c5.3,3,10.6,6.1,15.9,9.1c4.2,2.4,8.4,4.9,12.5,7.2c6.3,3.7,12.7,7.3,19,11c5,2.9,10.1,5.8,15.2,8.7
		c5.4,3.1,10.7,6.2,16.2,9.2c4.3,2.5,8.6,5,13,7.5c2,1.1,4.2,1.2,6.2,0c6.6-3.8,13.3-7.6,19.9-11.5c7.6-4.4,15.2-8.7,22.7-13.1
		c8.6-5,17.3-10,25.9-15c5.3-3.1,10.7-6.1,16-9.2c4.5-2.5,8.9-5.1,13.4-7.7c3.4-2,6.8-4,10.2-6c1.1,0.4,1.5,1.1,1.4,2.3
		c-0.1,1.4,0,2.9,0,4.4c0,1,0,2,0,3c-0.2,1.3,0.3,2.6-1.4,3.6c-35.8,20.6-71.6,41.3-107.3,62c-1.2,0.7-2.5,1.2-3.9,1.3
		c0-3.4-0.1-6.8-0.1-10.1c0-0.9,0.1-1.8-1.3-1.9c-0.7-0.1-1.3-0.4-1.9-0.8c-4.5-2.6-9.1-5.3-13.6-7.9c-7.4-4.3-14.8-8.5-22.2-12.8
		c-9.7-5.6-19.4-11.3-29.1-16.9c-10-5.8-19.9-11.5-29.9-17.2c-7.6-4.4-15.2-8.8-22.8-13.2c-5.7-3.3-11.5-6.6-17.2-10
		c-4.5-2.6-9.1-5.1-13.5-7.7c-1.9-1.2-4.3-1.9-5.7-4.1c0,2.8,0,5.5,0,8.1c-2,1.2-2.7,2.8-2.3,5.1c-0.3,1.2,0.1,2.4,0.4,3.5
		c-0.1,0.2-0.2,0.3-0.3,0.4c-2.3,1.8-1.7,4.2,1,5.6c4.2,2.3,8.2,4.7,12.3,7.1c6.3,3.6,12.5,7.2,18.8,10.8
		c6.9,3.9,13.7,7.9,20.5,11.9c6.9,4,13.8,7.9,20.7,11.9c6.2,3.6,12.4,7.2,18.6,10.8c6.9,4,13.8,7.9,20.7,11.9
		c6.2,3.6,12.4,7.2,18.6,10.8c7.5,4.3,15.1,8.6,22.6,13c4,2.3,7.8,2.1,11.7-0.2c4.3-2.5,8.7-5,13-7.5c6.9-4,13.8-7.9,20.7-11.9
		c7.9-4.6,15.8-9.2,23.7-13.8c8.2-4.7,16.4-9.4,24.6-14.2c9.7-5.6,19.3-11.2,29-16.8c10.6-6.1,21.2-12.2,31.8-18.3
		c10.3-6,20.6-12,31-18c9.3-5.4,18.6-10.7,27.9-16.1c10-5.8,20-11.6,29.9-17.3c1.3-0.8,2.7-1.5,2.7-3.4c-0.1-1.8-1.5-2.4-2.8-3.2
		c-0.4-0.2-0.8-0.5-1.3-0.4c-0.1-0.1-0.1-0.2-0.1-0.3c0.3-1.3-0.4-2-1.4-2.7c-7.2-4.2-14.4-8.3-21.6-12.5
		c-45.2-26.1-90.4-52.1-135.5-78.2c-2.4-1.4-4.6-1.4-7,0c-26.5,15.3-53,30.6-79.5,45.9c-6.9,4-13.8,8-20.7,12
		c-2.1-1.1-4.2-0.9-6.3,0.1c-1.5,0.7-2.8,1.9-4,3c-1.2-1.5-3.1-1.9-4.5-3c-1.2-0.9-2.2-0.9-3.4,0.1c-0.4,0.4-1.1,0.7-1.8,0.7
		c0.1-2.7,0.2-5.4,0.3-8.1c0.2-4.5,0.5-9,0.8-13.4c-0.1-0.2-0.1-0.4-0.1-0.7c-4.7-16.9-9.5-33.9-14.2-50.9c-1.3-4.9-2.7-9.7-4-14.6
		c4.1-0.9,8.2-1.9,12.3-2.9c7-1.6,14.1-2.9,21.1-4.1c4-0.7,8-1.4,12.1-1.9c4.5-0.5,9-1.1,13.5-1.5c5.8-0.5,11.5-1.1,17.3-1.4
		c3.4-0.2,6.9-0.3,10.3-0.6c5.1-0.4,10.2-0.2,15.3-0.2c5.3-0.1,10.5-0.1,15.7,0c5.1,0.1,10.2,0.5,15.4,0.8c4.4,0.3,8.9,0.7,13.3,1.1
		c5.2,0.6,10.3,1.2,15.5,1.9c12.2,1.6,24.3,3.8,36.3,6.6c3.9,0.9,7.7,1.9,11.6,2.8c0.4,5.4,0.7,10.7,1.2,16.1
		c0.4,3.8-0.2,7.9,1.9,11.4c-0.2,2.3,0.2,4.5,0.3,6.9c0.1,3.7,0.5,7.4,0.8,11.1c-1.6,0.3-2.4,1.8-3.5,2.8c-2.6,2.5-3.3,6.5-1.7,9.8
		c1.6,3.4,4.5,5.5,7.7,7.3c4,2.3,8.2,3.8,12.7,4.9c7,1.8,14.1,2.5,21.2,2.9c5,0.2,10.1-0.2,15.1-0.8c7.2-0.8,14.2-2.3,20.9-5
		c4-1.7,7.7-3.7,10.6-7c1.2-1.4,2.1-3,2.3-5c0.3-4.6-2.5-7.4-5.8-9.8C459.7,247,459.9,243.9,460.3,240.9z"/>
	<path class="st1" d="M108.4,224.3c0,0.1-0.1,0.1,0,0.1c0.7,7.9-0.9,15.6-2.2,23.3c-2.2,13.3-4.5,26.7-6.8,40
		c-0.1,0.6,0,1.3-0.9,1.3c-2.8,0.2-5.5,0.2-8.2-0.3c-0.6-0.3-0.5-0.9-0.5-1.5c-0.3-10.6-0.7-21.1-0.8-31.7
		c-0.1-4.7-0.4-9.5,0.4-14.2c0.5-2.8,1.7-5.3,2.4-8c-0.4-2.7-0.7-5.3-1.2-7.9c-1-6.5-1.9-13-2.9-19.5c-0.5-3.1-0.8-6.3-1.5-9.5
		c-0.2,1.3-0.3,2.4-0.4,3.5c-0.8,7.3-1.5,14.6-2.4,22c-0.7,5.6-1.3,11.3-2,17c-0.1,0.4-0.2,0.9-0.3,1.3c-1.9,13.6-4.3,27.1-6.5,40.6
		c-0.7,4.4-1.4,8.9-2.2,13.3c-0.3,0.6-0.1,1.5-1.1,1.7c-2.7,0.9-5.4,0.8-8-0.3c-0.6-0.3-0.4-0.9-0.6-1.4c0-4.4-0.2-8.9-0.6-13.2
		c0-0.8-0.1-1.5-0.1-2.3c-0.1-3-0.2-6.1-0.3-9.1c-0.2-5.3-0.3-10.5-0.4-15.7c0.1-3.7,0.1-7.4,0.8-11c0.1-0.2,0.1-0.4,0.2-0.7
		c1.8-4.5,1.7-9.1,0.9-13.8c-1-6.3-1.3-12.6-1.9-18.8c-0.8-9.8-1.4-19.6-1.1-29.4c0.2-4.9,0.4-9.9,1.6-14.7c0.3-1.2,0.4-2.9,1.3-3.5
		c0.9-0.7,2.1,0.7,3.2,1.2c11.3,4.5,22.5,4.5,33.6-0.3c1.2-0.5,2.2-1.2,3.2-2c0.7-0.1,1.2,0.2,1.8,0.7c0.1,1.5,0.2,3.2,0.2,4.7
		c0.7,12.6,1.4,25.1,2.1,37.7C107.9,210.7,108.1,217.5,108.4,224.3z"/>
	<path class="st2" d="M379.2,232.1c-2.2-3.5-1.6-7.6-1.9-11.4c-0.5-5.4-0.8-10.7-1.2-16.1c-0.2-3.8-0.4-7.6-0.7-11.3
		c-0.1-0.7-0.1-1.3-0.1-1.9c0.7-0.1,0.7,0.7,1.2,0.8c0.2,0.5,0.4,0.9,0.8,1.3c3.2,3.5,7.2,5.4,11.6,7c7.6,2.7,15.4,3.9,23.4,4.4
		c12,0.6,23.7-0.1,35.3-3.4c4.6-1.4,9.2-3.1,13-6.2c1.1-0.9,2.3-1.8,2.7-3.2c0.4,0,0.6-0.6,1.1-0.6c-0.1,5.8-0.7,11.6-1.1,17.4
		c-0.4,5.8-0.8,11.5-1.1,17.2c-0.1,2.3-0.4,4.4-1.8,6.3c-0.9,0.7-1.7,1.7-2.7,2.4c-3.6,2.5-7.6,4.3-11.8,5.4
		c-16,4.3-32.3,4.6-48.5,1.1C390.7,239.6,384.2,237.4,379.2,232.1z M413.4,235.4c1.4,0.1,2.8-0.2,4-0.7c0.8-0.3,1.2-0.8,0.2-1.4
		c-2.8-1.9-4.4-4.7-5.8-7.7c-2.2-5.1-5.8-8.9-11-11c-1-0.4-1.8-0.1-2.2,0.8c-0.7,1.7-1.1,3.4-0.9,5.3c0.4,3,1.4,5.8,3.3,8.2
		C404.2,232.7,408.2,235.2,413.4,235.4z M408,209.6c-1.6-0.1-3,0.2-4.4,0.9c-0.6,0.3-1.4,0.5-1.3,1.4c0.1,0.8,0.7,1.2,1.4,1.5
		c2.4,1,4.4,2.4,6.3,4.2c2.3,2.2,3.7,4.9,5.1,7.6c1.2,2.3,2.5,4.5,4.8,5.9c1.1,0.7,1.7,0.6,2.3-0.6c0.8-1.5,1.3-3.2,1.3-4.9
		c0-3.8-1.3-7.2-3.8-10.1C416.5,211.9,412.7,209.8,408,209.6z"/>
	<path class="st3" d="M166.4,203.8c1.3,4.9,2.6,9.7,4,14.6c4.7,16.9,9.4,33.9,14.2,50.9c0.1,0.2,0.1,0.4,0.1,0.7
		c-0.3,0.5-0.7,1-1,1.5c-3.6,5.2-8.6,7.9-14.8,8.7c-0.2-0.3-0.4-0.5-0.5-0.8c-2.3-8.2-4.5-16.4-6.7-24.7c-2-7.4-4-14.8-6-22.1
		c-3-11-6-21.9-9-32.9c-2.6-9.6-5.1-19.1-7.7-28.7c2.8-0.4,5.4-1.5,7.6-3.4c2.4-2.1,3.5-5.1,2.6-7.5c-0.3-0.9-0.9-1.4-2-1.2
		c-2.3,0.4-4.7,0.8-7.1,1.2c-1.6,0.2-3.2,0.4-5.1-0.3c1-0.3,1.6-0.6,2.2-0.7c1.5-0.6,2.8-1.4,3.5-2.9c0.3-0.6,0.3-1.2-0.1-1.7
		c-0.4-0.6-1-0.3-1.5-0.1c-1.4,0.5-2.8,0.9-4.3,1.1c-0.1-0.2-0.2-0.3-0.2-0.5c-2.4-9-4.9-17.9-7.2-26.9c0.9-0.3,1.8-0.6,2.7-0.9
		c4.7-1.8,9.7-3.2,12.7-7.7c0.3,1.2,0.6,2.4,0.9,3.6c-1-0.7-1.4-0.2-1.7,0.8c-0.2,0.8,0,1.6,0.3,2.4c0.3,0.8,0.8,1.4,0.8,2.3
		l-0.1,0.1c-1.9-0.8-4-1-6.1-0.9c-1.3,0.1-1.8,0.7-1.9,1.9c-0.2,1.8,0.3,3.4,1.2,5c1.8,3.3,4.8,4.8,8.2,5.4c2.4,0.5,4.3,1.6,5.1,4
		c3.8,13.6,7.5,27.1,11.3,40.7c1.7,6.1,3.4,12.2,5.1,18.3C166.2,203.3,166.3,203.6,166.4,203.8z"/>
	<path class="st4" d="M379.2,232.1c5,5.3,11.5,7.5,18.3,9c16.2,3.6,32.4,3.3,48.5-1.1c4.3-1.2,8.2-2.9,11.8-5.4
		c1-0.7,1.7-1.7,2.7-2.4c0.3,2.9-0.4,5.8-0.2,8.7c-0.4,3-0.6,6.1-0.6,9.1c-0.5,1.1-0.2,2.3-0.3,3.4c-0.2,3.2-0.8,6.3-3.3,8.6
		c-3.5,3.3-7.7,5.3-12.2,6.7c-8.4,2.7-16.9,3.7-25.7,3.4c-4-0.1-8.1-0.2-12.1-0.9c-6.6-1.1-13.1-2.7-18.9-6.4
		c-2.8-1.8-5.3-3.9-6.3-7.4c-0.7-2.5-0.4-5-0.7-7.5c-0.3-3.7-0.7-7.4-0.8-11.1C379.5,236.7,379,234.4,379.2,232.1z"/>
	<path class="st4" d="M463.3,191.9c-0.4,1.4-1.6,2.3-2.7,3.2c-3.8,3.1-8.4,4.8-13,6.2c-11.6,3.4-23.4,4.1-35.3,3.4
		c-8-0.4-15.8-1.7-23.4-4.4c-4.3-1.5-8.4-3.5-11.6-7c-0.3-0.4-0.7-0.8-0.8-1.3c-0.2-2.4-0.3-4.8-0.4-7.1c-0.3-3.5-0.3-7.1-0.8-10.7
		c-0.2-1.4-0.1-2.9-0.1-4.3c0.2,0.1,0.5,0.2,0.7,0.3c3.5,2.3,7.3,3.9,11.2,5.1c8,2.7,16.3,4,24.7,4.4c5.5,0.3,11.1,0.3,16.7-0.2
		c4.5-0.3,8.9-0.9,13.3-1.7c6.5-1.3,12.8-3,18.8-6.1c1.3-0.7,2.7-1.4,4-2.2c-0.2,3.9-0.4,7.7-0.8,11.6c-0.1,1.2-0.1,2.4-0.1,3.6
		C463.6,187.3,463.5,189.6,463.3,191.9z"/>
	<path class="st5" d="M374.8,161.5c-2-1.7-4.2-3.4-5.5-5.8c-0.8-1.5-1.4-3.2-1.4-4.9c-0.1-5.1,0-10.2,0-15.3c0.7,2.8,2,5.1,4.2,7
		c3.1,2.8,6.7,4.9,10.5,6.5c9.1,3.7,18.8,5.5,28.6,6.1c4.4,0.3,8.9,0.4,13.3,0.2c5.5-0.3,10.9-0.8,16.3-1.8
		c7.4-1.3,14.5-3.3,21.1-6.9c4.4-2.4,8.4-5.4,10-10.5c0,5.2,0.1,10.4-0.1,15.6c-0.1,3.1-2,5.4-4.1,7.4c-0.8,0.8-1.7,1.4-2.5,2.2
		c-1.9,1.1-3.7,2.3-5.6,3.2c-9.7,4.5-20.1,6.5-30.7,7.3c-7,0.6-14.1,0.5-21.1-0.2C396.1,170.3,384.8,168,374.8,161.5z"/>
	<path class="st5" d="M383.9,118.9c0.5-0.7,0.6-1.7,0.9-2.4c0.9,0.4,0.7,1.5,1.2,2.2c2,3,5.1,4.5,8.2,5.8c7.3,2.9,15,3.8,22.7,4.2
		c3.9,0.2,7.8-0.1,11.7-0.5c5.7-0.6,11.3-1.6,16.6-3.7c4.3-1.7,8.4-3.6,9.7-8.5c0.4,1.1,0.4,2.3,1.2,3.3c0,0.4-0.1,0.8,0.1,1.2
		c0.7,2.7,1.4,5.4,2.3,8.1c0.9,2.9,0.7,5.5-1.5,7.7c-2.4,2.3-5.2,4-8.3,5c-5.1,1.8-10.3,3.2-15.7,3.8c-3.9,0.4-7.9,0.8-11.8,0.9
		c-3.3,0.2-6.6-0.2-9.9-0.4c-4.8-0.3-9.5-1-14.1-2.3c-4.9-1.4-9.7-2.9-13.6-6.4c-1.9-1.7-3-3.7-2.5-6.4c0.3-1.4,0.7-2.8,1.1-4.2
		C382.6,123.8,383.5,121.4,383.9,118.9z"/>
	<path class="st6" d="M97.2,66.6c3.6-7.7,10.5-10.1,18.2-11.5c2.6-0.4,5.1,0,7.5,1.1c1.8,0.8,2.9,2.3,3.4,4.2
		c3.2,11.2,6.3,22.5,9.4,33.7c0.2,0.6,0.4,1.2,0.6,1.8c-0.1,0.2-0.1,0.4-0.2,0.5c-0.9,2.2-2.9,3.3-4.9,4.5c-3.2,1.8-6.6,2.8-10,4.1
		c-2.2,0.4-4.4,1-6.6,1.3c-2.5,0.3-5,0.6-7.2-1.2c-0.8-3-1.6-6.1-2.5-9.2c-0.7-2.2-1-4.6-2-6.7C105.9,81.6,104.8,72.2,97.2,66.6z"/>
	<path class="st3" d="M383.9,118.9c-0.4,2.5-1.3,5-1.9,7.5c-0.3,1.4-0.8,2.7-1.1,4.2c-0.5,2.6,0.7,4.6,2.5,6.4
		c3.9,3.5,8.7,5,13.6,6.4c4.6,1.3,9.3,1.9,14.1,2.3c3.3,0.2,6.6,0.6,9.9,0.4c3.9-0.2,7.9-0.6,11.8-0.9c5.4-0.6,10.6-2,15.7-3.8
		c3.1-1.1,5.9-2.7,8.3-5c2.2-2.2,2.5-4.8,1.5-7.7c-0.9-2.7-1.5-5.4-2.3-8.1c-0.1-0.4-0.1-0.8-0.1-1.2c5.3,1.9,10.2,4.5,13.7,9
		c1.8,2.3,2.6,4.9,2,7.9c-1.7,5.1-5.6,8.1-10,10.5c-6.6,3.5-13.8,5.5-21.2,6.9c-5.4,1-10.8,1.4-16.3,1.8c-4.5,0.3-8.9,0.1-13.3-0.2
		c-9.8-0.6-19.4-2.3-28.6-6.1c-3.9-1.5-7.4-3.7-10.5-6.5c-2.1-1.9-3.4-4.3-4.2-7c-0.4-4,1.3-7.1,4-9.7
		C375.4,122.6,379.4,120.4,383.9,118.9z"/>
	<path class="st6" d="M134.9,155.4c1.5-0.2,2.9-0.7,4.3-1.1c0.5-0.2,1.1-0.6,1.5,0.1c0.4,0.6,0.4,1.1,0.1,1.7
		c-0.7,1.5-2,2.4-3.5,2.9c-0.6,0.2-1.2,0.4-2.2,0.7c1.9,0.7,3.5,0.5,5.1,0.3c2.4-0.3,4.7-0.7,7.1-1.2c1.1-0.2,1.7,0.2,2,1.2
		c0.8,2.4-0.2,5.4-2.6,7.5c-2.2,1.9-4.8,2.9-7.6,3.4c-3,0.5-5.9,0.1-8.8-0.9c-1.7-0.6-3.3-1.5-5.1-1.7c-0.4-0.4-1.1-0.6-1.6-0.7
		c-2.9-0.8-5.8-1.7-8.6-2.7c-3.3-1.2-6.6-2.3-9.9-3.5c-0.5-0.4-1.1-0.7-1.8-0.7c-1.2-1.1-2.8-1.6-4.2-2.2c-7.6-3.4-14.3-8-19.8-14.4
		c-4.2-4.9-8.4-9.7-12-15.1c-1.7-2.6-2.9-5.3-3-8.4c-0.1-3.3,0.5-6.4,2.7-9c1.1-1.3,2.4-2.1,4.2-2.2c2.3,1,3.7,2.9,4.8,4.9
		c4.1,7.2,8.4,14.3,13.4,20.9c4.1,5.3,9,9.7,14.7,13.2c3.4,2.4,7.1,4.2,11,5.8c2.2,0.9,4.4,2.2,6.8,2.5c1.8,0.9,3.8,1.3,5.8,1.1
		C130.3,157.7,132.5,156.2,134.9,155.4z"/>
	<path class="st5" d="M62,269.6c0.1,3,0.2,6.1,0.3,9.1c-0.3-0.6-0.7-1.1-0.9-1.7c-6.4-11.6-15.2-20.9-26.5-27.8
		c-2.5-1.5-5.2-2.8-8.1-3.4c-0.4-0.1-1-0.4-1.2,0.2c-0.1,0.7,0.6,0.6,0.9,0.7c2.2,0.5,4.3,1.4,6.3,2.5c8.7,4.8,15.8,11.4,21.8,19.3
		c3,3.9,5.4,8.2,7.7,12.6c0.3,4.4,0.6,8.8,0.6,13.2c-1.2-1.3-1.7-3-2.5-4.5c-3.4-6.2-8.1-11.2-14.1-15c0.1-0.3-0.1-0.4-0.3-0.4l0,0
		c-0.1-0.3-0.2-0.6-0.6-0.3l0,0c0.2-0.7-0.4-0.7-0.7-0.9c-4.5-3.8-9.5-6.6-14.5-9.6c-2.7-1.5-5.4-3-7.8-5c-2-1.7-3.8-3.7-4.8-6.1
		c-2.4-5.5,0.2-10.3,6-11.5c5.8-1.2,11.2,0.1,16.3,2.6c6.3,3,11.1,7.7,15,13.3c0.3,0.4,0.6,0.8,0.9,1.2
		C58.3,261.7,60.4,265.6,62,269.6z"/>
	<path class="st1" d="M97.2,66.6c7.5,5.6,8.6,14.9,5.6,22.6c-0.2,0.4-0.4,0.8-0.7,1.3c0-2.5,0-5.1,0-8c-1.5,1.3-1.9-0.1-2.7-0.3
		C99.3,82.2,99,82,99,81.7c0.1-0.3,0.4-0.4,0.8-0.6c0.7-0.2,1.2,0.4,2,0.7c-0.7-3.7-1.1-7.3-4.1-10.2c-0.4,1.7-0.7,3-1.2,4.3
		c-0.6,1.3-1.2,2.6-2.1,3.7c-3.7,4.8-8.9,7-14.6,8.1c-1.1,0.2-1.8,0.3-2.7-0.9c-1.4-2-5.1-1.7-6.4,0.3c-1.3,2-0.9,5.8,0.8,7.8
		c1.5,1.8,3.4,2,6.3,0.9c0,1.8,0,3.5,0,5.3c-6.2-1.9-10.3-6.1-13-12c0,1.9,0,3.9,0,5.8c-0.1,4.5-3.2,8.3-7.5,9.1
		c-1.7,0.3-1.7,0.2-1.7-1.4c0-5.4,0-10.7,0-16c0-5.3,2.8-8.8,8-9.9c0.6-0.1,0.8-0.4,1-0.9c2.7-7.9,8.7-12.2,17.1-12.3
		c1.4,0,2.8,0.1,4.2,0C90,63.3,93.8,64.3,97.2,66.6z"/>
	<path class="st6" d="M77.8,100.9c0-1.7,0-3.4,0-5.3c-2.9,1.2-4.8,0.9-6.3-0.9c-1.7-2-2-5.8-0.8-7.8s4.9-2.3,6.4-0.3
		c0.8,1.2,1.6,1.1,2.7,0.9c5.8-1.1,10.9-3.3,14.6-8.1c0.9-1.2,1.5-2.4,2.1-3.7c0.6-1.3,0.8-2.6,1.2-4.3c2.9,2.9,3.4,6.5,4.1,10.2
		c-0.8-0.3-1.3-0.9-2-0.7c-0.3,0.1-0.7,0.2-0.8,0.6c-0.1,0.3,0.3,0.5,0.5,0.6c0.7,0.2,1.2,1.6,2.7,0.3c0,2.9,0,5.5,0,8
		c-0.1,0.8-0.2,1.5-0.3,2.3c-0.3,2.2-0.7,4.5-1.8,6.5c-1.3,2.3-3.4,3.5-5.8,3.2c-1.2-0.2-2.4-0.3-3.5-0.5c-0.7-0.1-1,0.1-1,0.9
		c0,1.1,0.1,2.2-0.1,3.3c-0.1,1.1,0.3,1.4,1.3,1.3c4.5-0.3,8.5,1.2,12,4c2,1.7,3.8,3.6,5.6,5.5c0.8,0.9,1.4,2.1,2.7,2.7h-0.1
		c-0.1,0.2,0.1,0.4,0.2,0.6c0.2,0.5,0.4,1,0.6,1.5c0.1,0.2,0.2,0.3,0.3,0.4l0,0c0.3,2,1.1,3.9,1.7,5.9c0.1,0.4,0.1,0.9,0.2,1.3
		c0.7,2.5,1.4,5.1,2.2,7.7c0.8,3,1.8,5.9,2.4,9c-0.6-0.2-0.9-0.7-1.3-1c-4-3.9-8-7.8-12.2-11.6c-0.3-0.4-0.3-0.8-0.3-1.3
		c0.9-7.9-1.4-14.6-7.2-20c-2.1-2-4.5-3.6-7.5-4c-0.1-0.1-0.1-0.1-0.1-0.1c0,0.1,0,0.1,0,0.1s0.1,0.1,0.1,0.1
		c1.1,1.9,2.6,3.4,3.1,5.6c0.3,1.5-0.1,2.5-1.5,3.1c-1.4,0.5-2.9,0.6-4.3,0.3c-3.7-0.7-6-3.4-8.3-6c-0.8-0.8-1.5-1.7-1.4-3
		C77.8,105.7,77.8,103.3,77.8,100.9z M91.5,87.2c-0.1-0.7-0.4-1.2-1.2-1.3c-0.8-0.1-1.3,0.4-1.3,1.3c0,0.7,0.5,1.2,1.2,1.2
		C91,88.4,91.4,88,91.5,87.2z M99.6,87.5c0.7-0.1,1.2-0.4,1.3-1.2c0-0.7-0.4-1.2-1.2-1.2c-0.8-0.1-1.2,0.4-1.3,1.2
		C98.3,87,98.8,87.4,99.6,87.5z"/>
	<path class="st0" d="M374.8,161.5c10.1,6.4,21.4,8.8,33,10c7,0.7,14.1,0.8,21.1,0.2c10.6-0.8,21-2.8,30.7-7.3
		c1.9-0.9,3.8-2.1,5.6-3.2c-0.1,2.9-0.2,5.7-0.6,8.6c-1.3,0.7-2.7,1.4-4,2.2c-5.9,3.2-12.2,4.9-18.8,6.1c-4.4,0.8-8.9,1.4-13.3,1.7
		c-5.6,0.4-11.1,0.4-16.7,0.2c-8.4-0.4-16.7-1.7-24.7-4.4c-3.9-1.3-7.7-2.9-11.2-5.1c-0.2-0.2-0.5-0.2-0.7-0.3
		c-0.4-2.2-0.4-4.3-0.6-6.5C374.7,162.9,374.8,162.2,374.8,161.5z"/>
	<path class="st3" d="M454.9,115.9c-1.4,4.9-5.5,6.9-9.7,8.5c-5.3,2.1-10.9,3.1-16.6,3.7c-3.9,0.4-7.8,0.7-11.7,0.5
		c-7.7-0.3-15.5-1.2-22.7-4.2c-3.2-1.3-6.2-2.8-8.2-5.8c-0.5-0.7-0.3-1.7-1.2-2.2c0.3-3.1,2-5.3,4.6-7c4.3-2.8,9.2-4.2,14.2-5.2
		c7.2-1.5,14.6-1.7,22-1.3c7.1,0.4,14.2,1.6,20.8,4.4c2,0.8,4,1.9,5.7,3.3C453.6,112,454.7,113.7,454.9,115.9z M391.6,117.3
		c1.7,1.7,3.7,2.5,5.9,3.2c7.6,2.5,15.5,3.4,23.5,3.2c7-0.2,14-0.9,20.7-3.2c2.3-0.7,4.6-1.5,6.4-3.3c2-1.1,2.1-1.8,0.4-3.2
		c-0.3-0.2-0.6-0.4-0.9-0.7c-2.4-1.5-5-2.5-7.7-3.3c-5.6-1.6-11.3-2.3-17.1-2.5c-6.3-0.3-12.6,0.2-18.8,1.4c-4.6,0.9-9,2.2-12.8,5
		C389.5,115.2,389.6,116.2,391.6,117.3z"/>
	<path class="st0" d="M77.8,108.1c-0.1,1.3,0.7,2.2,1.4,3c2.3,2.7,4.6,5.3,8.3,6c1.5,0.3,2.9,0.2,4.3-0.3c1.4-0.5,1.9-1.6,1.5-3.1
		c-0.5-2.2-2-3.8-3.1-5.6l0,0c3,0.5,5.4,2.1,7.5,4c5.8,5.4,8.1,12.2,7.2,20c-0.1,0.5-0.1,0.9,0.3,1.3c-0.1,0.2-0.3,0.4-0.3,0.6
		c-0.3,4.8-0.9,9.6-0.9,14.4c-5.6-3.5-10.6-7.9-14.7-13.2c-5-6.6-9.4-13.7-13.4-20.9c-1.2-2-2.5-4-4.8-4.9
		C73.3,108.5,75.5,108.1,77.8,108.1z"/>
	<path class="st3" d="M46.4,274.8c6,3.8,10.6,8.9,14.1,15c0.8,1.5,1.2,3.2,2.5,4.5c0.1,0.5-0.1,1.1,0.6,1.4c0,0.8,0,1.6,0,2.4
		c-1.1-1.5-2-3.1-3.1-4.5c-6.5-8.6-15.1-14.1-25.2-17.5c-0.9-0.3-1.8-0.6-2.7-0.8c-0.4-0.1-1.1-0.5-1.3,0.2
		c-0.2,0.7,0.7,0.5,1.1,0.8c0.1,0.1,0.2,0.1,0.3,0.1c13.2,3.8,23.6,11,30.4,23.2c-0.9,1.4-0.9,3.2-1.5,4.8c-1.2-1.5-2.4-3.2-4-4.5
		c-3.3-3.4-7.1-6-11.3-8.2c-4.6-2.3-9.4-4-14.2-5.9c-1.8-0.9-3.6-1.6-5.2-2.8c-2.2-1.7-3.4-3.8-2.8-6.6c0.6-2.7,2.6-4.2,5.1-5
		c4.9-1.6,9.4-0.6,13.9,1.6c0.8,0.4,1.6,1.1,2.6,1.2l0,0c0.1,0.3,0.2,0.5,0.6,0.3l0,0C45.9,274.6,46.2,274.7,46.4,274.8z"/>
	<path class="st6" d="M143.2,128.5c-0.1-0.8-0.5-1.5-0.8-2.3c-0.3-0.8-0.5-1.6-0.3-2.4c0.2-0.9,0.7-1.4,1.7-0.8
		c0.8,1.8,1.9,3.3,3.2,4.8c2.8,3.4,4.4,7.4,5.1,11.7c0.3,2.2-0.4,3.7-2.3,4.5c-0.8-2.4-2.6-3.5-5.1-4c-3.4-0.7-6.4-2.2-8.2-5.4
		c-0.9-1.5-1.4-3.2-1.2-5c0.1-1.2,0.6-1.8,1.9-1.9C139.2,127.5,141.2,127.7,143.2,128.5c0.1,0,0.1,0,0.2,0.1
		C143.3,128.7,143.3,128.6,143.2,128.5z"/>
	<path class="st0" d="M121.3,105c3.4-1.3,6.9-2.3,10-4.1c1.9-1.1,3.9-2.3,4.9-4.5c0.1-0.2,0.1-0.3,0.2-0.5c1,2.8,1.6,5.6,2.4,8.4
		c-0.7,2.3-2.7,3.5-4.6,4.6c-3.3,1.9-6.9,3.3-10.6,4.4c-0.1,0-0.2-0.1-0.3-0.1c-0.1-0.4-0.1-0.8-0.2-1.2
		C122.6,109.7,121.6,107.5,121.3,105z"/>
	<path class="st3" d="M123.5,113.4c3.7-1.2,7.2-2.4,10.6-4.4c1.9-1.1,3.9-2.3,4.6-4.6c0.8,2.8,1.5,5.6,2.3,8.5
		c-0.4,1.4-1.3,2.4-2.5,3.2c-3.8,2.7-8.1,4.3-12.6,5.5c-0.3-0.2-0.4-0.4-0.5-0.8C124.8,118.3,124.1,115.8,123.5,113.4z"/>
	<path class="st0" d="M125.9,121.5c4.5-1.2,8.7-2.8,12.6-5.5c1.2-0.8,2-1.8,2.5-3.2c0.9,2.2,1.3,4.4,1.9,6.6c-3,4.5-8,5.9-12.7,7.7
		c-0.9,0.3-1.8,0.6-2.7,0.9v-0.1c-0.6-2.1-1.1-4.2-1.7-6.3C125.8,121.6,125.8,121.5,125.9,121.5z"/>
	<path class="st0" d="M62,269.6c-1.6-4-3.7-7.9-6-11.6c1.7-0.9,2.9-2.4,4.4-3.5c0.3-0.3,0.6-0.7,1.1-0.7
		C61.7,259.1,61.8,264.4,62,269.6z"/>
	<path class="st1" d="M376.1,185.1c0.2,2.4,0.3,4.8,0.4,7.1c-0.5-0.1-0.6-0.9-1.2-0.8c-0.1-1.6-0.6-3.2,0-4.8
		C375.5,186,375.5,185.4,376.1,185.1z"/>
	<path class="st1" d="M463.3,191.9c0.2-2.3,0.3-4.6,0.4-7c1.3,2,1.1,4.2,0.7,6.4C463.9,191.3,463.8,192,463.3,191.9z"/>
	<path class="st3" d="M203.7,290.7c6.9-4,13.8-8,20.7-12c26.5-15.3,53-30.6,79.5-45.9c2.4-1.4,4.7-1.3,7,0
		c45.2,26.1,90.4,52.1,135.5,78.2c7.2,4.2,14.4,8.3,21.6,12.5c1.1,0.6,1.7,1.3,1.4,2.7c-3.3,2.3-6.8,4-10.2,6
		c-5.8,3.4-11.6,6.6-17.3,10c-5.5,3.2-11.1,6.4-16.6,9.6c-5.9,3.4-11.7,6.8-17.5,10.1c-5.5,3.2-11,6.4-16.5,9.5
		c-6.3,3.6-12.5,7.2-18.8,10.8c-6,3.4-11.9,6.9-17.9,10.4c-0.8,0.4-1.5,0.6-2.3,0.1c-2.2-1.3-4.4-2.5-6.6-3.8c0-1.4-0.2-2.9,0-4.4
		c0.1-1.2-0.3-1.9-1.4-2.3c0.1-0.5,2-0.2,0.6-1.3c0.4-2.2,0.3-4.4-0.4-6.5c-1.4-4.2-5-5.7-9-3.8c-1.5,0.7-2.7,1.8-3.9,2.8
		c-0.7-0.4-1.4-0.9-2-1.3c0.5-2,0.3-3.9-0.2-5.9c-1.3-4.9-5.1-6.6-9.6-4.3c-1.3,0.7-2.3,1.7-3.4,2.5c-0.7-0.4-1.4-0.8-2.1-1.3
		c0.4-2.3,0.3-4.6-0.5-6.8c-1.4-3.9-4.9-5.4-8.7-3.7c-1.6,0.7-2.9,1.8-4.2,2.9c-0.7-0.4-1.4-0.9-2-1.3c0-1.5,0.1-3,0.1-4.5
		c-0.3-5.5-5-8.1-9.9-5.6c-1.3,0.7-2.3,1.7-3.4,2.5c-0.7-0.4-1.4-0.8-2.2-1.3c0.6-2.8,0.3-5.5-1-8c-1.3-2.5-3.6-3.5-6.4-3
		c-2.4,0.4-4.2,1.9-5.8,3.5c-0.7-0.4-1.4-0.8-2.1-1.3c0.4-1.7,0.3-3.4,0.1-5.1c-1-5.7-5.6-7.8-10.6-4.7c-0.9,0.6-1.8,1.4-2.7,2.2
		c-0.7-0.4-1.4-0.8-2.1-1.3c0.4-2.4,0.3-4.9-0.6-7.2c-1.4-3.5-4.7-4.9-8.2-3.4c-1.7,0.7-3.1,1.8-4.4,3c-0.7-0.4-1.4-0.8-2.1-1.3
		c0.4-1.7,0.3-3.4,0.1-5.1c-1-5.7-5.6-7.8-10.6-4.7c-0.9,0.6-1.8,1.4-2.7,2.2c-0.7-0.4-1.4-0.8-2.1-1.2c0.4-2.4,0.3-4.9-0.6-7.2
		c-1.4-3.5-4.7-4.9-8.2-3.4c-1.7,0.7-3,1.8-4.4,3c-0.7-0.4-1.4-0.8-2.1-1.2C207.4,297.2,207,293.5,203.7,290.7z"/>
	<path class="st4" d="M252.8,327.7c0.7,0.4,1.4,0.8,2.1,1.3c-1.7,1.8-2.9,3.9-4.1,6c-0.7,0-1.2,0.3-1.8,0.5
		c-0.9,0.4-1.7,0.8-1.5,1.9c0.2,1.1,0.9,1.3,1.9,1.4c0.6,0.5,1.3,0.4,2,0.3c0.2,0.2,0.4,0.2,0.6,0.1c1.1-0.3,2.3-0.4,2.7-1.8
		c0.3-1.3-0.9-1.6-1.6-2.3c0.9-2,2.2-3.8,3.8-5.2c3.2,1.9,6.4,3.8,9.6,5.6c0.6,0.3,1.2,0.7,1.8,1c0.7,0.4,1.4,0.8,2.1,1.3
		c-1.7,1.9-3,4-4.3,6.3c-0.5,0-1,0-1.5,0.2c-0.9,0.3-1.8,0.8-1.8,1.8c0.1,1.2,0.9,1.6,2,1.6c0.6,0.4,1.2,0.3,1.8,0.3
		c0.6,0.2,1.1-0.1,1.5-0.2c0.9-0.2,1.7-0.6,1.8-1.8c0.1-1.2-0.8-1.5-1.7-1.7c0.9-2.1,2.2-3.9,3.9-5.5c3.2,1.9,6.5,3.8,9.7,5.6
		c0.6,0.3,1.1,0.6,1.7,0.9c0.7,0.4,1.4,0.8,2.2,1.3c-1.6,1.8-2.9,3.8-4.1,6c-0.6,0.2-1.2,0.3-1.8,0.5c-0.9,0.3-1.7,0.8-1.5,1.9
		c0.2,1.1,0.9,1.3,1.9,1.4c0.4,0.9,1.2,0.3,1.8,0.4c1.4-0.1,2.8-0.3,3.3-1.7c0.6-1.3-0.9-1.7-1.5-2.4c0.9-2,2.2-3.7,3.8-5.1
		c3.2,1.9,6.4,3.7,9.6,5.6c0.6,0.3,1.2,0.7,1.9,1c0.7,0.4,1.4,0.9,2,1.3c-1.7,1.8-3,4-4.2,6.1c-0.7-0.1-1.2,0.1-1.8,0.3
		c-1,0.4-1.4,1.1-1.2,2.2c0.2,1,1,1.1,1.8,1.1c0.6,0.4,1.3,0.7,2,0.2c0.6,0.1,1.1,0.1,1.6-0.2c0.8-0.4,1.6-0.7,1.5-1.9
		c-0.1-1.1-0.8-1.3-1.7-1.5c0.9-2.1,2.2-4,4-5.4c3.2,1.8,6.4,3.7,9.6,5.5c0.6,0.3,1.2,0.7,1.8,1c0.7,0.4,1.4,0.8,2.1,1.3
		c-1.6,1.8-2.9,3.8-4,6c-0.8,0.2-1.7,0.2-2.4,0.8c-0.6,0.5-1.3,1.1-0.9,1.9c0.3,0.8,0.9,1.2,1.8,1.1c0.5,0.6,1.2,0.4,1.9,0.5
		c0.7,0.1,1.3-0.2,1.8-0.4c0.8-0.3,1.6-0.8,1.5-1.7c-0.1-0.9-0.8-1.5-1.7-1.7c0.9-2.1,2.2-3.9,3.9-5.4c3.3,1.9,6.5,3.8,9.7,5.6
		c0.6,0.3,1.2,0.6,1.7,0.9c0.7,0.4,1.4,0.9,2,1.3c-1.7,1.8-3,4-4.2,6.1c-0.6-0.1-1.2,0-1.7,0.3c-0.8,0.4-1.7,0.8-1.5,1.8
		c0.1,1.1,0.9,1.5,1.9,1.5c0.5,0.6,1.2,0.4,1.8,0.5c0.6,0.1,1.2-0.2,1.7-0.4c0.9-0.3,1.7-0.7,1.7-1.8c0-1.1-0.8-1.4-1.7-1.6
		c0.9-2.1,2.1-4,4-5.4c3.2,1.8,6.4,3.7,9.6,5.5c0.6,0.4,1.1,0.8,1.8,1c1.4,1.2-0.5,0.8-0.6,1.3c-3.4,2-6.8,4-10.2,6
		c-4.5,2.5-8.9,5.1-13.4,7.7c-5.3,3-10.7,6.1-16,9.2c-8.6,5-17.3,10-25.9,15c-7.6,4.4-15.2,8.7-22.7,13.1
		c-6.6,3.8-13.3,7.7-19.9,11.5c-2,1.2-4.2,1.1-6.2,0c-4.4-2.4-8.7-5-13-7.5c-5.4-3.1-10.7-6.2-16.2-9.2c-5-2.9-10.1-5.8-15.2-8.7
		c-6.3-3.7-12.7-7.3-19-11c-4.2-2.4-8.4-4.9-12.5-7.2c-5.3-3-10.6-6.1-15.9-9.1c-6.1-3.5-12.2-7-18.3-10.6c-5.3-3-10.6-6-15.9-9.1
		c-6.3-3.7-12.9-7-18.9-11.4c-2.4-1.8-4.6-3.8-6.4-6.3c-1.5-2-1-3.8,1.5-4.5c6.1-1.8,11.5-5.1,16.9-8.2c5.1-3,10.2-5.9,15.3-8.9
		c5-2.9,10-5.8,14.9-8.6c5.1-2.9,10.2-5.9,15.3-8.8c5.1-2.9,10.2-5.9,15.3-8.8c4-2.3,8.1-4.7,12.2-7c1.7,2.4,3.4,4.8,5,7.2
		c1.4,2.1,2.9,4.3,4.3,6.4c0.4,0.6,0.9,1.2,1.8,0.9c0.8-0.3,1-1,1-1.8c0-0.8,0.1-1.7,0.1-2.5c8.7,5,17.5,10.1,26.3,15.1
		c6.9,4,13.8,8,20.6,12c0,0.7-0.6,0.8-1,1.1c-4.5,2.5-8.9,5.1-13.4,7.7c-6.4,3.7-12.7,7.4-19.1,11.1c-1,0.6-2.2,0.9-2.8,2
		c-1.4,0.1-1.8,1-1.7,2.2c0.2,1.1,0.2,1.5-1.2,1.2c-0.8-0.2-2.1-0.1-2,1c0,1.7-0.9,1.5-1.9,1.4c-0.6,0-1.1-0.1-1.7,0.1
		c-0.7,0.1-1.3,0.4-1.2,1.2c0.2,1.1-0.4,1.4-1.3,1.6c-0.4,0.1-0.8,0.2-1.1,0.5c-0.7,0.7-1.4,0.8-2.4,0.6c-1.6-0.4-3.2-0.1-4.8,0.2
		c-0.7,0.2-1.5,0.7-1.3,1.5c0.3,1.1,0.5,2-0.9,2.5c-0.2,0.1-0.2,0.5-0.2,0.8c0,1.2-0.8,1.4-1.8,1.3c-0.6-0.1-1.2-0.2-1.8-0.3
		c-2.6-0.6-3.2-0.2-3.4,2.4c-0.1,0.6-0.1,1-0.8,1.1c-0.3,0-0.6,0.2-0.5,0.6c0.1,0.4,0.3,0.5,0.7,0.5c1.1,0.1,1.8-0.6,1.9-1.6
		c0.2-1.6,1.1-2.1,2.6-2c1,0.1,2-0.1,3,0.2c1.2,0.3,1.7-0.3,1.7-1.4c0-0.4,0.1-0.7,0.5-0.9c0.9-0.4,1-1,0.4-1.9
		c-0.7-1.1-0.3-1.5,0.9-1.8c1.9-0.4,3.9-0.2,5.8-0.3c0.4,0,1,0.2,1.3-0.3c0.4-0.8,1.3-1,2-1.2c0.5-0.1,1-0.3,0.9-1
		c-0.2-1.4,0.8-1.5,1.7-1.5c0.8-0.1,1.7,0.2,2.4,0.3c0.3,0.1,0.8,0.3,1-0.1c0.2-0.4-0.1-0.7-0.3-1c-0.2-0.4-0.9-0.6-0.5-1.1
		c0.4-0.5,1-0.4,1.5-0.3c0.8,0.2,1.4,0.4,1.9,1.2c0.9,1.5,2.3,2.7,3.9,3.7c0.8,0.5,1.7,0.7,2.3-0.1c0.6-0.7,0-1.3-0.6-1.9
		c-0.7-0.8-1.5-1.3-2.5-1.6c-1.4-0.5-2.7-1.2-3.2-2.8c-0.2-0.6-0.4-1.1,0-1.5c0.4-0.5,1-0.2,1.5-0.1c0.7,0.2,1.4,0.7,2.5,0.4
		c-1.2-0.7-2.2-1.2-3.2-1.4c2.2-1.7,4.6-3,7.2-4.2c0,0.3-0.1,0.6,0.2,0.7c1.3,0.5,2.5,0.9,3.9,0.6c0.7-0.2,1.1-0.7,0.7-1.5
		c-0.2-0.3-0.5-0.8,0.1-1c1.1-0.4,2-1.1,3.3-0.6c0.4,0.2,1.1,0.3,1.3-0.2c0.6-1.4,1.4-1,2.4-0.6c0.6,0.2,1.1,0.3,1.5-0.1
		c0.4-0.4,0.2-0.9,0-1.4c-0.5-1.3-0.4-1.5,1.1-1.5c0.7,0,1.6,0.2,1.8-0.6c0.3-1.4,1.2-1.1,2.1-0.9c0.6,0.1,1.1,0.1,1.7,0.1
		c0.6,0,0.7-0.2,0.6-0.8c-0.2-0.8-0.1-1.5,0.9-1.7c0.9-0.2,1.4,0.2,1.7,1.1c0.6,1.3,1.4,2.4,2.8,2.9c0.5,0.2,1.1,0.5,1.5,0
		c0.4-0.5,0.1-1-0.2-1.4c-0.5-1-1.3-1.8-2.2-2.4c-1.7-1.1-1.8-2-0.5-3.5c0.2-0.2,0.3-0.3,0.2-0.6c-0.1-0.2-0.3-0.3-0.6-0.3
		c-0.3,0.1-0.6,0.1-0.9,0.2c0-0.4,0.3-0.6,0.6-0.7c1.2-0.7,2.4-1.3,3.5-2.1c0.6-0.4,1.7-0.5,1.8-1.5c2.7,1.5,5.4,3.1,8.1,4.6
		c7.4,4.3,14.9,8.6,22.3,12.9c-0.7,0.9-1.7,1.2-2.7,1.7c-5.5,3.2-11,6.4-16.5,9.6c-5.8,3.3-11.6,6.6-17.3,10
		c-6.3,3.6-12.6,7.2-18.8,10.9c-1.1-0.9-2.3-1.5-3.6-2c-1.3-0.5-1.8-1.4-2.3-2.6c-0.2-0.5-0.3-0.9,0.2-1.4c0.4-0.4,0.8-0.2,1.3-0.2
		c0.8,0.2,1.5,0.8,2.6,0.4c-1.1-0.8-2.1-1.3-3.2-1.4c-1.3-0.2-2.3,0.6-2,2c0.2,1.4-0.3,1.3-1.4,1.2c-1.3-0.2-2.2,0.5-1.9,1.7
		c0.2,0.9-0.3,0.9-0.8,0.8c-0.9-0.2-1.8-0.3-2.7-0.1s-1.4,0.6-1.1,1.7c0.2,0.4,0.1,0.7-0.3,0.9c-1.8,0.9-3.5,1.9-5.8,1.5
		c-0.9-0.2-1.9-0.1-2.9,0c-0.8,0-1.8,0.4-1.7,1.1c0.1,1.5-0.6,2.6-1.1,3.9c-0.6,1.4-1.2,1.5-2.3,1.4c-0.7-0.1-1.3-0.2-2-0.4
		c-1.7-0.3-2.5,0.3-2.5,1.9c0,0.8-0.1,1.6-1.1,1.8c-0.2,0.1-0.5,0.1-0.4,0.4c0.1,0.2,0.3,0.4,0.5,0.4c1.1,0.2,1.8-0.1,2-1.3
		c0.6-2,1.1-2.3,3.1-2.3c0.9,0,1.9,0.4,2.9,0.3c0.8-0.1,1.8,0.1,1.3-1.4c-0.2-0.4,0.2-0.7,0.4-0.9c0.8-0.5,0.9-1,0.5-1.9
		c-0.6-1.3-0.2-1.8,1.3-1.9c2-0.1,3.9-0.4,5.9-0.3c0.3,0,0.7,0.1,0.8-0.2c0.3-0.9,1.2-1,1.9-1.2c0.7-0.2,1.1-0.4,1-1.2
		c-0.1-1.1,0.6-1.3,1.4-1.3c1,0,1.9,0.1,2.9,0.3c0.8,0.1,1.2-0.2,0.7-1c-0.3-0.4-0.8-0.8-0.3-1.3c0.4-0.5,0.9-0.3,1.5-0.2
		c0.8,0.2,1.4,0.6,1.8,1.3c0.8,1.4,2.1,2.4,3.4,3.4c0.7,0.5,1.6,0.7,2.3,0.2c0.8-0.4,0.1-1.2,0.1-1.8c0.6-0.3,1.3-0.5,1.9-0.8
		c5.9-3.4,11.8-6.8,17.8-10.2c10.7-6.2,21.4-12.3,32-18.5c1.3-0.8,2.9-1.3,3.9-2.5c0.4,0.2,0.9,0.4,1.3,0.7c6.9,4,13.9,8,20.8,12
		c6.2,3.6,12.3,7.1,18.5,10.7c-4.1,2.4-8.2,4.7-12.3,7.1c-5,2.9-10,5.8-14.9,8.6c-4.2,2.4-8.4,4.9-12.6,7.4c-1.1-1.5-2.5-2.4-4.2-3
		c-1.3-0.4-2.1-1.3-2.4-2.6c-0.3-1.3,0.2-1.8,1.5-1.5c0.8,0.2,1.5,0.7,2.6,0.6c-0.6-1.1-1.7-1.2-2.6-1.5c-1.8-0.8-2.7-0.1-2.7,1.9
		c0.1,1-0.1,1.3-1.3,1.2c-1.6-0.3-2.5,0.3-2.3,1.5c0.2,1.1-0.3,0.9-0.9,0.9c-0.4,0-0.9-0.1-1.4-0.1c-1.7-0.2-2.1,0.2-2.3,1.9
		c0,0.2-0.1,0.6-0.3,0.6c-1.4,0.4-2.4,1.8-4.1,1.6c-1.7-0.2-3.5-0.3-5.2,0.3c-1.2,0.3-1.8,1.3-1.3,2.2c1,1.5-0.9,1.4-1,2.1
		c-0.2,1-0.2,1.9-1.5,1.8c-0.9-0.1-1.8-0.2-2.7-0.3c-1.9-0.3-2.6,0.2-2.6,2.1c0,0.6,0.2,1.2-0.5,1.5c-0.3,0.2-1,0-0.8,0.7
		c0.2,0.4,0.7,0.2,1.1,0.3c0.9,0.1,1.1-0.5,1.3-1.3c0.4-1.8,0.8-2,2.7-2c1,0,2,0,3,0c1.1,0.1,2,0.1,1.8-1.4
		c-0.1-0.2,0.2-0.6,0.3-0.7c1.2-0.6,0.8-1.3,0.4-2.2c-0.4-0.8-0.4-1.3,0.8-1.5c2-0.4,4-0.1,6-0.2c0.4,0,1.1,0.2,1.3-0.3
		c0.4-1.1,1.4-1.1,2.2-1.3c0.5-0.2,0.9-0.3,0.7-0.9c-0.4-1.2,0.4-1.4,1.3-1.5c1-0.2,2,0.3,3,0.3c0.3,0,0.6,0.3,0.9-0.1
		c0.3-0.3-0.1-0.6-0.2-0.8c-0.2-0.4-0.9-0.8-0.6-1.3c0.4-0.6,1.1-0.3,1.7-0.3c0.7,0,1.2,0.4,1.5,0.9c1.1,1.7,2.5,3,4.3,4
		c1,0.5,1.9,0.5,2.3-0.8c1.7-0.3,2.9-1.4,4.4-2.3c10.5-6,21-12.1,31.5-18.3c1.4-0.8,3-1.4,4.3-2.7c3.2,1.8,6.5,3.7,9.9,5.6
		c-28.2,16.3-56.2,32.5-84.2,48.7c1.2,0.4,1.8-0.3,2.5-0.8c27-15.6,54-31.2,81-46.8c0.9-0.5,1.5-0.6,2.5-0.1
		c2.6,1.6,5.3,3.1,7.9,4.6c0.4,0.2,0.8,0.7,1.7,0.3c-3.5-2-6.8-3.9-10.1-5.9c1.5-1.2,3.3-1.7,4.5-3.2c-1.4,0.6-2.7,1.2-3.9,2
		c-0.8,0.6-1.5,0.6-2.5,0.1c-4.9-2.9-9.9-5.8-14.8-8.6c-29.6-17-59-34.1-88.6-51.1c-8.4-4.9-16.9-9.7-25.3-14.5
		c0.1-1.4,0.1-2.9,0.2-4.4c0.2-0.2,0.2-0.3,0.1-0.5c-0.1-0.2-0.1-0.3-0.1-0.4c0.1-0.6,0.2-1.1,0.2-1.6c0.1-3.5,0.2-7.1,0.6-10.7
		c0.7,0.1,1.3-0.3,1.8-0.7c1.2-1.1,2.2-0.9,3.4-0.1c1.4,1.1,3.3,1.5,4.5,3c-1.5,1.8-2.8,3.8-3.9,5.8c-0.7,0-1.3,0.3-1.9,0.6
		c-0.8,0.3-1.5,0.7-1.4,1.8c0.2,1.1,0.9,1.5,1.9,1.5c0.6,0.4,1.3,0.4,2,0.3c1.4,0.1,2.7-0.3,3.2-1.7c0.5-1.3-0.9-1.6-1.5-2.3
		c1.3-2.8,3.1-5.1,5.7-6.8c1.2-0.8,2.4-1.3,3.9-1.1c-1.7,1-3.3,2-5.1,3c3.1,1.8,6.1,3.5,9.1,5.2c0.6,0.3,1.1,0.7,1.7,1
		c0.7,0.4,1.4,0.8,2.1,1.2c-1.7,1.8-3,3.9-4.1,6c-0.8-0.2-1.5,0.2-2.1,0.5c-0.6,0.4-1.5,0.8-1.3,1.7c0.2,0.9,0.8,1.6,2,1.5
		c0.6,0.4,1.3,0.4,2,0.2c0.7,0.1,1.3-0.1,2-0.3c0.8-0.4,1.3-0.9,1.1-1.8c-0.2-0.9-0.7-1.4-1.7-1.4c0.9-2.1,2.2-4,3.9-5.5
		c3.2,1.9,6.4,3.7,9.6,5.6c0.6,0.3,1.2,0.7,1.8,1c0.7,0.4,1.4,0.8,2.1,1.2c-1.7,1.8-2.9,3.9-4.1,6c-0.6,0.2-1.2,0.3-1.8,0.5
		c-0.9,0.3-1.7,0.8-1.5,1.9c0.2,1.1,1,1.3,1.9,1.4c0.6,0.5,1.3,0.4,2,0.3c1.4,0.1,2.7-0.3,3.2-1.7c0.5-1.3-0.9-1.6-1.6-2.3
		c0.9-2,2.2-3.8,3.8-5.2c3.2,1.9,6.4,3.8,9.5,5.6c0.6,0.3,1.2,0.7,1.8,1c0.7,0.4,1.4,0.8,2.1,1.3c-1.7,1.8-3,3.9-4.1,6
		c-0.8-0.2-1.5,0.2-2.1,0.5c-0.7,0.4-1.5,0.9-1.3,1.8c0.2,0.9,0.9,1.5,2,1.5c0.6,0.4,1.2,0.3,1.8,0.3c0.7,0.4,1.3-0.2,1.9-0.3
		c0.9-0.2,1.5-0.9,1.5-1.7c-0.1-0.9-0.7-1.7-1.8-1.7c0.9-2.1,2.2-4,3.9-5.5c3.2,1.9,6.5,3.7,9.7,5.6
		C251.6,327,252.2,327.4,252.8,327.7z M171.7,358.8c-0.2,0.4-0.5,0.5-0.8,0.7c-4.9,2.8-9.8,5.6-14.7,8.5
		c-6.5,3.8-12.9,7.5-19.4,11.2c-0.4,0.2-0.9,0.4-0.9,1c0.4,0.2,0.7-0.1,0.9-0.2c7.9-4.6,15.8-9.2,23.7-13.8
		c7.6-4.4,15.2-8.7,22.7-13.1c7.6-4.4,15.1-8.7,22.6-13.2c0.9-0.6,2.2-0.7,2.7-1.9c0.2,0,0.4,0,0.6,0c0.7-0.1,1.5,0.3,1.8-0.5
		c0.3-0.9-0.4-1.4-0.9-2c-0.1-0.2-0.4-0.2-0.6-0.4c-0.9-0.7-2-1-3.1-1.5c-1.2-0.6-1.6-1.6-1.9-2.7c-0.2-0.8,0.1-1.3,1.1-1.2
		c0.8,0.1,1.5,0.4,2.2,0.7c0.2,0.1,0.6,0.3,0.7-0.1c0.1-0.3-0.2-0.4-0.3-0.6c-0.8-0.4-1.7-0.9-2.7-1.1c-1.5-0.3-2.2,0.2-2.2,1.8
		c0,0.6,0.1,1.1,0.1,1.7c-0.8-0.3-1.5-0.2-2.2-0.2c-1.1,0-1.6,0.6-1.4,1.5c0.3,1.1-0.3,1-0.9,0.9c-0.4,0-0.9-0.1-1.4-0.1
		c-1.5-0.2-2.2,0.3-2.3,1.9c-0.1,0.4-0.2,0.6-0.6,0.7c-1.6,0.7-3,1.8-5,1.4c-0.8-0.2-1.7-0.1-2.5,0c-1.3,0.2-2.8,0.1-3.1,1.9
		c-0.4,0.2-0.9,0.3-1.3,0.5c-5.3,3-10.6,6-15.9,9.1c-5,2.9-10.1,5.8-15.1,8.8c-1.3,0.8-2.9,1.3-3.9,2.6c-0.1,0.2-0.2,0.3-0.3,0.6
		c-0.6-0.4-1.1-0.2-1.5,0.2c-5.1,3-10.2,5.9-15.3,8.9c-1.6,0.9-3.2,1.8-4.8,2.8c-0.2,0.2-0.6,0.3-0.4,0.6c0.2,0.4,0.4,0.1,0.7,0
		c3.5-2,7-4.2,10.6-6.1c2.5-1.4,4.8-3.1,7.5-4.1c0.6,1.1,3.7,1.8,4.6,1c0.3-0.3,0.6-0.7,0.3-0.9c-0.9-1.4,0.2-1.5,1.1-1.8
		c0.8-0.3,1.5-0.6,2.4-0.2c0.3,0.2,1,0.2,1.2-0.2c0.6-1.3,1.4-0.8,2.3-0.4c0.6,0.2,1.2,0.3,1.7-0.2c0.6-0.6,0.1-1-0.2-1.4
		c-0.5-0.7-0.1-1.1,0.5-1.4c0.6-0.2,1.1-0.1,1.6-0.2c0.4,0,0.8,0,0.8-0.4c0-1.1,0.8-0.9,1.4-0.9c0.7-0.1,1.3,0.2,1.9,0.3
		c0.6,0.1,1.2,0.1,1-0.8c-0.2-0.7-0.3-1.4,0.6-1.5c0.8-0.2,1.6-0.2,2,0.9C168.2,357.4,169.4,358.9,171.7,358.8z M271.2,365
		c-1.2-1.1-2.4-1.6-3.7-1.8c-1.3-0.2-2.3,0.8-1.9,2c0.4,1.4-0.3,1.4-1.3,1.2c-1.2-0.2-2.2,0.4-2,1.2c0.4,1.8-0.5,1.4-1.5,1.2
		c-0.3-0.1-0.6-0.1-0.8-0.1c-1.7-0.1-2.1,0.3-2.2,2c0,0.3-0.1,0.6-0.4,0.7c-1.8,0.6-3.2,2-5.3,1.5c-0.9-0.2-1.9-0.1-2.9,0
		c-1,0.1-2.3,0.3-2.2,1.4c0.1,1.3,0.2,2.5-1.2,3.3c-0.1,0.1-0.1,0.3-0.1,0.4c0.2,1-0.4,1.2-1.2,1.3c-1.1,0.1-2.1-0.2-3.2-0.4
		c-1.7-0.2-2.4,0.2-2.4,1.8c0,0.8,0,1.6-1,1.9c-0.2,0.1-0.4,0.2-0.3,0.5c0.1,0.3,0.3,0.3,0.6,0.3c1.2,0.2,1.7-0.3,1.9-1.4
		c0.3-1.6,1.5-2.4,3-2c0.9,0.2,1.8,0,2.6,0.2c2.5,0.6,1.1-2.5,2.7-2.8c0.3-0.1,0.2-0.7,0.1-1c0-0.1-0.1-0.1-0.1-0.1
		c-0.8-1.5-0.6-1.9,1.3-2.1c1.8-0.2,3.6-0.2,5.4-0.3c0.4,0,0.9,0.2,1.2-0.3c0.5-0.9,1.3-0.9,2.1-1.1c0.6-0.2,1-0.3,0.8-1.1
		c-0.3-1,0.3-1.4,1.3-1.4c0.9,0,1.8,0,2.7,0.2c0.3,0.1,0.8,0.2,1-0.2c0.2-0.3,0.1-0.7-0.2-1c-0.2-0.3-0.8-0.6-0.4-1.1
		c0.3-0.4,0.8-0.4,1.4-0.3c0.8,0.2,1.4,0.4,1.9,1.1c1,1.5,2.3,2.8,3.9,3.7c0.7,0.4,1.6,0.6,2.2-0.1c0.6-0.7,0.1-1.3-0.5-1.9
		c-0.7-0.8-1.6-1.3-2.7-1.7c-1.5-0.5-2.8-1.4-3.2-3.2c-0.2-1.1,0.2-1.5,1.3-1.3C269,364.3,269.8,365.1,271.2,365z M219.8,391.1
		c-0.8-0.1-1.4,0-1.8,0.5c-0.3,0.4-0.2,0.9,0.2,1.3c0.3,0.4,0.8,0.8,0.4,1.3c-0.4,0.5-1,0.2-1.5-0.1c-0.3-0.1-0.5-0.2-0.7-0.4
		c-0.6-0.3-0.9-0.2-0.9,0.5c0,1.4-0.8,1-1.6,0.7c-0.6-0.2-3.4,0.6-3.8,1.1c-0.1,0.1-0.1,0.3-0.1,0.5c0.1,1.8-0.4,2.2-2.3,1.9
		c-0.3-0.1-0.7-0.3-0.8,0.1c-0.2,0.5,0.3,0.7,0.6,0.7c0.9,0.2,1.8,0.5,2.7,0.6c0.9,0.1,1.5-0.7,1.3-1.7c-0.1-0.4-0.5-0.9,0.2-1.2
		c1.1-0.3,2-1.1,3.3-0.6c0.6,0.3,1.3,0.2,1.5-0.7c0.1-0.6,0.5-0.6,0.9-0.4c0.5,0.2,1,0.4,1.5,0.6c1.1,0.2,1.6-0.4,1.2-1.4
		c-0.6-1.8-0.6-1.8,1.3-1.8c0.6,0,1.4,0.2,1.5-0.7c0.2-1,0.8-1,1.5-0.8c0.6,0.1,1.1,0.1,1.6,0.3c0.9,0.3,1.2-0.2,1-0.9
		c-0.4-1.3,0.6-1.4,1.3-1.6c0.8-0.2,1.1,0.5,1.4,1.1c0.6,1.2,1.3,2.5,2.7,3c0.6,0.2,1.1,0.4,1.5-0.1c0.6-0.5,0.1-1.1-0.2-1.5
		c-0.6-1.2-1.7-1.9-2.7-2.7c-1.1-0.7-1.2-1.9-0.4-2.8c0.2-0.3,0.8-0.4,0.4-0.8c-0.3-0.3-0.8-0.2-1.2-0.1c-0.4,0.2-0.6,0.6-0.7,1
		c-0.1,1.3-0.8,1.4-1.9,1.1c-1.8-0.4-2.2-0.1-1.9,1.7c0.2,1.1-0.3,1.5-1.3,1.2c-0.7-0.2-1.4-0.4-1.8,0.1
		C221.6,391.5,220.6,391.6,219.8,391.1z M266.4,390.9c1.6,0,2-0.4,1.8-1.7c-0.1-0.3-0.3-0.8,0.1-0.9c1.1-0.3,2.2-1.4,3.5-0.6
		c0.3,0.2,0.9,0.2,1-0.1c0.6-1.5,1.5-0.9,2.5-0.6c0.5,0.2,1.1,0.2,1.5-0.2c0.4-0.4,0.2-0.9-0.1-1.4c-0.6-1.2,0.1-1.4,1-1.4
		c0.8,0,1.7,0.1,1.9-0.8c0.3-1.1,0.9-0.9,1.7-0.9c0.6,0.1,1.2,0.2,1.8,0.3c0.7,0.1,1.1-0.2,0.8-0.9c-0.3-0.8-0.1-1.4,0.8-1.5
		c0.7-0.1,1.5-0.3,1.9,0.8c0.4,1.3,1.3,2.2,2.4,2.9c0.6,0.4,1.3,0.6,1.8,0.1c0.5-0.5,0.1-1.1-0.2-1.7c-0.6-1.1-1.6-1.7-2.5-2.4
		c-1.1-0.8-1.2-2.2-0.3-2.9c0.2-0.2,0.8-0.2,0.6-0.7c-0.3-0.6-0.8-0.3-1.2-0.1c-0.5,0.2-0.9,0.6-0.9,1.1c-0.1,1.5-0.9,1.2-1.9,0.9
		c-1.5-0.4-2.2,0.2-1.9,1.7c0.2,0.9-0.1,1.3-1,1.2c-0.8-0.1-1.9-0.3-2.3,0.4c-0.7,1.3-1.7,0.8-2.5,0.6c-0.7-0.2-1.2-0.1-1.6,0.4
		c-0.4,0.6-0.2,1.2,0.2,1.6c0.3,0.3,0.6,0.7,0.2,1.1c-0.3,0.4-0.7,0.3-1.1,0.1c-0.3-0.1-0.6-0.3-0.9-0.4c-0.6-0.3-1.1-0.4-1.2,0.5
		c-0.1,1.1-0.7,1-1.3,0.7c-1.5-0.8-2.6,0.6-3.9,0.8c-0.3,0.1-0.2,0.4-0.2,0.7c0.2,1.6-0.1,1.9-1.7,1.9c-0.3,0-0.7,0-0.9,0
		c-0.2,0-0.5,0.1-0.5,0.4c0,0.3,0.2,0.4,0.4,0.4C264.9,390.5,265.8,390.7,266.4,390.9z M214.8,370.3c-0.7,0-1.3-0.1-1.5,0.5
		c-0.2,0.6-0.1,1.1,0.4,1.5c0.3,0.3,0.6,0.7,0.3,1.1c-0.3,0.4-0.8,0.3-1.2,0.1c-0.3-0.1-0.5-0.2-0.8-0.3c-0.7-0.3-1.3-0.7-1.3,0.6
		c0,0.8-0.7,0.9-1.1,0.6c-1.2-0.8-2.2-0.1-3.2,0.3c-0.8,0.3-1.5,0.4-1.1,1.7c0.3,0.6-0.2,1.1-0.8,1.3c-0.6,0.2-1.1,0.2-1.6,0
		c-0.3-0.1-0.7-0.3-0.8,0.2c-0.1,0.4,0.3,0.6,0.6,0.7c0.9,0.2,1.8,0.5,2.7,0.6c1.2,0.1,1.6-0.6,1.3-1.8c-0.1-0.4-0.2-0.7,0.3-0.9
		c1.1-0.4,2-1.1,3.3-0.6c0.6,0.2,1.3,0.3,1.5-0.5c0.2-1,0.7-0.7,1.3-0.4c0.3,0.2,0.7,0.3,1.1,0.4c0.6,0.2,1,0.1,1.4-0.3
		c0.3-0.4,0.3-0.8,0.1-1.3c-0.6-1.3-0.4-1.5,0.9-1.6c0.8,0,1.7,0.1,1.9-1.1c0.2-0.6,0.8-0.7,1.4-0.6s1.1,0.1,1.6,0.3
		c1.1,0.3,1.4-0.1,1.1-1.1c-0.3-0.8,0.2-1.1,0.8-1.3c1-0.3,1.5,0.1,2,0.9c0.7,1.3,1.3,2.7,2.9,3.1c0.4,0.1,0.8,0.4,1.2,0
		c0.4-0.4,0.3-0.9,0.1-1.4c-0.6-1.1-1.5-1.9-2.4-2.5c-1.5-1.1-1.6-1.8-0.4-3.3c0.2-0.2,0.3-0.3,0.2-0.6c-0.2-0.3-0.4-0.3-0.7-0.3
		c-0.9,0.1-1.2,0.7-1.3,1.4c-0.2,1.1-0.7,1.2-1.6,0.8c-2-0.7-2.7-0.1-2.1,1.9c0.3,1.3-0.3,1.2-1.1,1.1c-0.7-0.1-1.4-0.6-1.9,0.1
		C216.9,370.7,215.8,370.8,214.8,370.3z M249.4,353.2L249.4,353.2c0-0.4,0-0.8,0-1.2c0.1-0.6-0.1-0.9-0.7-1.1
		c-0.5-0.1-0.7,0.3-1,0.6c-0.4,0.4-0.4,0.9-0.2,1.4c0.4,1-0.1,1.2-0.9,1.2s-1.9-0.3-2.6,0.5c-0.6,0.7-1.3,0.7-2,0.4
		c-0.8-0.3-1.7-0.2-2.1,0.4c-0.4,0.7,0.2,1.2,0.6,1.7c0.3,0.3,0.3,0.6,0.1,1c-0.2,0.3-0.6,0.3-0.8,0.2c-0.4-0.2-0.8-0.4-1.2-0.6
		c-0.4-0.2-0.9-0.2-0.9,0.4c-0.1,1.3-0.9,1-1.6,0.7c-1.5-0.6-2.5,0.7-3.7,0.9c-0.3,0.1-0.2,0.6-0.1,0.8c0.4,1.2-0.3,1.5-1.2,1.7
		c-0.4,0.1-0.9,0-1.4,0c-0.2,0-0.4,0-0.4,0.3c-0.1,0.2,0.1,0.4,0.2,0.4c1.1,0.2,2.1,0.8,3.2,0.6c0.9-0.2,1.3-0.8,1.1-1.7
		c-0.1-0.4-0.3-0.8,0.2-1.1c1-0.3,1.9-1.1,3.2-0.6c0.7,0.3,1.4,0.2,1.7-0.7c0.2-0.7,0.5-0.6,1-0.3c0.4,0.2,0.8,0.4,1.3,0.5
		c0.5,0.1,1,0.2,1.4-0.3c0.3-0.4,0.2-0.8-0.1-1.3c-0.5-1.1-0.2-1.5,0.9-1.7c0.8-0.1,1.9,0.3,2-1.2c0-0.3,0.4-0.3,0.7-0.2
		c0.7,0,1.5-0.1,2.2,0.2c0.9,0.3,1.4-0.1,1.4-1.1C249.4,353.9,249.4,353.5,249.4,353.2z"/>
	<path class="st7" d="M469.5,326.4c0.5-0.1,0.9,0.2,1.3,0.4c1.2,0.8,2.7,1.4,2.8,3.2c0.1,1.9-1.3,2.6-2.7,3.4
		c-10,5.8-20,11.6-29.9,17.3c-9.3,5.4-18.6,10.7-27.9,16.1c-10.3,6-20.6,12-31,18c-10.6,6.1-21.2,12.2-31.8,18.3
		c-9.7,5.6-19.3,11.2-29,16.8c-8.2,4.8-16.4,9.4-24.6,14.2c-7.9,4.6-15.8,9.2-23.7,13.8c-6.9,4-13.8,7.9-20.7,11.9
		c-4.3,2.5-8.7,5-13,7.5c-3.9,2.3-7.7,2.5-11.7,0.2c-7.5-4.4-15.1-8.6-22.6-13c-6.2-3.6-12.4-7.2-18.6-10.8
		c-6.9-4-13.8-7.9-20.7-11.9c-6.2-3.6-12.4-7.2-18.6-10.8c-6.9-4-13.8-7.9-20.7-11.9c-6.9-3.9-13.7-7.9-20.5-11.9
		c-6.3-3.6-12.5-7.2-18.8-10.8c-4.1-2.4-8.2-4.8-12.3-7.1c-2.7-1.5-3.3-3.9-1-5.6c0.1-0.1,0.2-0.3,0.3-0.4c0.7,1.2,1.9,1.9,3,2.5
		c9.1,5.2,18.1,10.5,27.2,15.7c41.4,23.9,82.8,47.7,124.2,71.6c3.2,1.8,6.3,1.8,9.4,0c37.1-21.5,74.3-42.9,111.5-64.4
		c1.1-0.6,1.7-1.3,1.5-2.5c-0.2-1.2,0.4-1.2,1.2-0.6c1,0.8,1.8,0.7,2.9,0c37.3-21.6,74.6-43.1,111.9-64.6
		C468.6,329.8,469.8,328.6,469.5,326.4z"/>
	<path class="st7" d="M76,364.5c0-2.6,0-5.3,0-8.1c1.4,2.2,3.8,2.9,5.7,4.1c4.4,2.7,9,5.2,13.5,7.7c5.8,3.3,11.5,6.6,17.2,10
		c7.6,4.4,15.2,8.8,22.8,13.2c10,5.8,19.9,11.5,29.9,17.2c9.7,5.6,19.4,11.3,29.1,16.9c7.4,4.3,14.8,8.5,22.2,12.8
		c4.5,2.6,9.1,5.3,13.6,7.9c0.6,0.3,1.3,0.7,1.9,0.8c1.4,0.1,1.3,0.9,1.3,1.9c0,3.4,0,6.8,0.1,10.1c-1.3,0.2-2.4-0.4-3.5-1
		c-4.9-2.8-9.8-5.6-14.7-8.5c-45-26-90-52-135-77.9c-4.3-2.5-3.9-1.5-4-6.7C76,364.6,76,364.5,76,364.5z"/>
	<path class="st7" d="M57.5,299.8c1.5,1.3,2.8,2.9,4,4.5c-0.8,4.1-0.3,5.5,3.3,7.2c2.9,1.4,5,3.3,6.3,6.3c0.8,1.8,2.1,3.1,3.9,3.9
		c3.4,1.4,6.8,1.5,10.2,0c2.4-1.1,2.6-3.1,0.6-4.6c-1.1-0.8-2.2-1.7-3.3-2.4l0,0c-0.1-0.1-0.2-0.2-0.3-0.3l0,0
		c-0.1-0.1-0.2-0.3-0.3-0.4c-3.3-2.5-5.4-5.9-7.6-9.3c-1.7-2.6-2.8-5.4-2.5-8.5c0.9-0.2,0.8-1.1,1.1-1.7c0.4-0.1,0.9-0.2,1.3-0.3
		c5-0.9,10.1-1.2,15.3-1.1c-0.3,1.4-0.7,2.9-0.9,4.3c-0.6,2.7,0.1,4,2.3,5.5c0.4,0.3,0.9,0.6,1.4,0.8c2.6,1.1,4.5,2.9,5.6,5.6
		c1.3,3.1,3.8,4.6,6.9,5.3c2.7,0.5,5.3,0.2,7.8-1c1.7-0.8,2.3-2.4,1.2-3.6c-1.2-1.4-2.7-2.5-4.4-3.3l0,0c0.2-0.3-0.2-0.3-0.3-0.5
		c-3.9-3.3-6.8-7.5-9.2-12c2.1,0.1,4.2,0.7,6.2,1.3c5.1,1.4,10.1,3.5,14.2,7.1c4.6,4.1,5.9,9.9,1.4,14.9c-4.1,4.6-9.6,6.9-15.3,8.5
		c-4.4,1.3-8.9,1.9-13.5,2.3c-9.6,0.7-18.9-0.2-28.1-3.3c-4.5-1.6-8.7-3.8-12-7.5c-3.5-3.9-3.7-9-0.3-13.1
		C53.8,302.4,55.6,301.1,57.5,299.8z"/>
	<path class="st5" d="M125.2,168.3c1.8,0.1,3.4,1.1,5.1,1.7c2.9,1.1,5.8,1.5,8.8,0.9c2.6,9.6,5.1,19.1,7.7,28.7c3,11,6,21.9,9,32.9
		c2,7.4,4,14.8,6,22.1c2.2,8.2,4.4,16.4,6.7,24.7c0.1,0.3,0.3,0.6,0.5,0.8c-1.1,0.4-2.2,0.4-3.3,0.6c-3.2,0.2-6.3-0.5-9.1-1.9
		c-0.6-0.4-0.8-1.1-0.9-1.8c-5.9-21.3-11.8-42.5-17.8-63.8c-0.1-0.2-0.2-0.4-0.3-0.6c-0.2-0.6-0.3-1.3-0.4-1.9
		C133,196.6,129.1,182.5,125.2,168.3z"/>
	<path class="st8" d="M125.2,168.3c3.9,14.1,7.9,28.3,11.8,42.4c0.2,0.6,0.3,1.3,0.4,1.9c-5.6,2-11.2,4-16.7,6.4
		c-3.3,1.4-6.6,2.9-9.9,4.4c-0.8,0.3-1.5,0.7-2.3,0.8c-0.3-6.8-0.6-13.6-0.9-20.4c-0.7-12.6-1.4-25.1-2.1-37.7
		c-0.1-1.5-0.2-3.2-0.2-4.7c3.3,1.2,6.6,2.3,9.9,3.5c2.8,1,5.7,1.8,8.6,2.7C124.1,167.8,124.7,167.9,125.2,168.3z"/>
	<path class="st5" d="M469.5,326.4c0.3,2.2-0.8,3.4-2.8,4.5c-37.4,21.5-74.6,43.1-111.9,64.6c-1.1,0.7-1.9,0.8-2.9,0
		c-0.8-0.6-1.3-0.6-1.2,0.6c0.2,1.3-0.4,1.9-1.5,2.5c-37.1,21.4-74.3,42.9-111.5,64.4c-3.2,1.8-6.3,1.8-9.4,0
		c-41.4-23.9-82.8-47.8-124.1-71.7c-9.1-5.3-18.1-10.5-27.2-15.7c-1.2-0.7-2.3-1.3-3-2.5c-0.3-1.2-0.7-2.3-0.4-3.5
		c0.6,0.8,1.2,1.7,2.1,2.3c4.6,2.7,9.2,5.4,13.8,8c8.2,4.7,16.4,9.4,24.6,14.2c9.3,5.4,18.5,10.7,27.8,16.1
		c5.8,3.3,11.5,6.7,17.3,10c5.6,3.3,11.2,6.5,16.9,9.7c5.8,3.3,11.5,6.6,17.2,10c5.4,3.2,10.8,6.3,16.2,9.4
		c5.9,3.4,11.8,6.7,17.7,10.2c3.4,2,6.7,2.8,10.2,0.8c5.8-3.2,11.4-6.5,17.1-9.9c4.9-2.9,9.9-5.7,14.8-8.6
		c5.8-3.3,11.5-6.6,17.2-9.9c6.1-3.5,12.2-7.1,18.4-10.6c5.7-3.3,11.5-6.6,17.2-10c5.6-3.3,11.2-6.5,16.8-9.7
		c3.6-2,7.1-4.2,10.7-6.2c0.5-0.3,1-0.6,0.2-1.1c-1.4-0.8-2.7-1.8-4.2-2.3c0-1,0-2,0-3c2.2,1.2,4.4,2.5,6.6,3.8
		c0.8,0.5,1.5,0.4,2.3-0.1c5.9-3.5,11.9-7,17.9-10.4c6.3-3.6,12.5-7.2,18.8-10.8c5.5-3.2,11-6.4,16.5-9.5
		c5.9-3.4,11.7-6.8,17.5-10.1c5.5-3.2,11.1-6.4,16.6-9.6c5.8-3.3,11.6-6.6,17.3-10c3.4-2,6.9-3.8,10.2-6
		C469.4,326.2,469.4,326.3,469.5,326.4z"/>
	<path class="st3" d="M345.8,392c1.5,0.6,2.8,1.5,4.2,2.3c0.8,0.4,0.2,0.8-0.2,1.1c-3.6,2-7.1,4.2-10.7,6.2
		c-5.6,3.3-11.2,6.5-16.8,9.7c-5.8,3.3-11.5,6.6-17.2,10c-6.1,3.5-12.2,7.1-18.4,10.6c-5.8,3.3-11.5,6.6-17.2,9.9
		c-4.9,2.8-9.9,5.7-14.8,8.6c-5.7,3.3-11.3,6.6-17.1,9.9c-3.5,2-6.9,1.2-10.2-0.8c-5.8-3.5-11.8-6.8-17.7-10.2
		c-5.4-3.1-10.8-6.3-16.2-9.4c-5.7-3.3-11.5-6.6-17.2-10c-5.6-3.3-11.2-6.5-16.9-9.7c-5.8-3.3-11.5-6.7-17.3-10
		c-9.2-5.4-18.5-10.7-27.8-16.1c-8.2-4.7-16.4-9.4-24.6-14.2c-4.6-2.7-9.2-5.4-13.8-8c-0.9-0.6-1.5-1.4-2.1-2.3
		c-0.4-2.3,0.3-3.9,2.3-5.1c0,0.1,0.1,0.2,0.1,0.3c0,5.2-0.3,4.2,4,6.7c45,26,90,52,135,77.9c4.9,2.8,9.8,5.6,14.7,8.5
		c1.1,0.6,2.2,1.2,3.5,1c1.4-0.1,2.7-0.6,3.9-1.3c35.7-20.7,71.5-41.4,107.3-62C346.1,394.6,345.5,393.2,345.8,392z"/>
	<path class="st7" d="M380.3,250c0.2,2.5,0.1,5,0.7,7.5c0.9,3.5,3.4,5.6,6.3,7.4c5.8,3.7,12.2,5.3,18.9,6.4c4,0.7,8,0.8,12.1,0.9
		c8.8,0.2,17.4-0.7,25.7-3.4c4.5-1.4,8.7-3.4,12.2-6.7c2.5-2.4,3.1-5.4,3.3-8.6c0.1-1.2-0.2-2.3,0.3-3.4c3.3,2.4,6.2,5.1,5.8,9.8
		c-0.2,2-1.1,3.6-2.3,5c-2.9,3.3-6.6,5.4-10.6,7c-6.7,2.8-13.7,4.2-20.9,5c-5,0.6-10.1,1-15.1,0.8c-7.1-0.3-14.2-1.1-21.2-2.9
		c-4.4-1.1-8.7-2.7-12.7-4.9c-3.2-1.8-6-3.9-7.7-7.3c-1.5-3.2-0.9-7.2,1.7-9.8C377.9,251.8,378.6,250.4,380.3,250z"/>
	<path class="st6" d="M156.4,278.8c2.9,1.4,5.9,2,9.1,1.9c1.1-0.1,2.3-0.1,3.3-0.6c6.1-0.8,11.2-3.5,14.8-8.7c0.3-0.5,0.7-1,1-1.5
		c-0.3,4.5-0.6,9-0.8,13.4c-0.1,2.7-0.2,5.4-0.3,8.1c-0.3,3.5-0.5,7.1-0.6,10.7c0,0.6-0.2,1.1-0.2,1.6c-1.2,1.4-2.7,2.5-4.6,2.8
		c-0.9,0.2-1.9,0.1-2.9,0.2c-1.7-2.4-3.4-4.8-5-7.2c-3.4-5-6.8-10-10.1-14.9C158.9,282.7,157.5,280.8,156.4,278.8z"/>
	<path class="st6" d="M99.7,294c2.4,4.5,5.3,8.6,9.2,12c0.1,0.2-0.1,0.5,0.3,0.5l0,0c0.5,1.8-0.2,2.7-2,2.8c-0.4,0-0.7-0.1-1.1-0.1
		c-1.6-0.3-3-1.1-4.2-2.3c-3.4-3.6-6.4-7.6-10.1-10.9c-1.3-1.2-1.7-2.8-1.4-4.5c0-0.9,0-1.7,0.1-2.6c2.8,0.4,5.5,0.5,8.2,0.3
		C98.6,290.7,98.5,292.5,99.7,294z"/>
	<path class="st1" d="M189.4,299.5c1.1-2,2.4-4,3.9-5.8c1.3-1.1,2.5-2.3,4-3c2.1-1,4.2-1.2,6.3-0.1c3.4,2.8,3.8,6.5,3.1,10.5
		c-0.6-0.3-1.1-0.7-1.7-1c0.1-1.8,0.1-3.6-0.6-5.3c-0.6-1.5-1.5-2.9-3.4-2.9c-1.4-0.2-2.7,0.3-3.9,1.1c-2.5,1.7-4.4,4-5.7,6.8
		c-0.8,1.2-1.2,2.5-1.6,3.9c-0.7,0.2-1.4,0.2-2-0.3C188.5,302.1,188.9,300.8,189.4,299.5z"/>
	<path class="st0" d="M90.4,288.8c0,0.9,0,1.7-0.1,2.6c-0.9,0.1-0.8,1-1.1,1.5c-5.1-0.1-10.2,0.2-15.3,1.1c-0.4,0.1-0.9,0.2-1.3,0.3
		c0.7-4.4,1.4-8.9,2.2-13.3c2.2-13.6,4.6-27.1,6.5-40.6c0.1-0.4,0.2-0.9,0.3-1.3c0.4,0.1,0.8-0.1,1.2-0.3c2.4-1.4,4.8-2.9,7.2-4.4
		c0.6-0.4,1.2-0.8,2-0.8c-0.8,2.7-1.9,5.3-2.4,8c-0.9,4.7-0.5,9.5-0.4,14.2c0.2,10.6,0.6,21.1,0.8,31.7
		C89.9,287.8,89.8,288.4,90.4,288.8z"/>
	<path class="st8" d="M91.9,233.4c-0.8,0-1.4,0.4-2,0.8c-2.4,1.4-4.8,2.9-7.2,4.4c-0.3,0.2-0.7,0.4-1.2,0.3c0.7-5.6,1.4-11.3,2-17
		c0.8-7.3,1.6-14.6,2.4-22c0.1-1.1,0.2-2.2,0.4-3.5c0.8,3.3,1.1,6.4,1.5,9.5c1,6.5,2,13,2.9,19.5C91.2,228.2,91.5,230.8,91.9,233.4z
		"/>
	<path class="st6" d="M71.5,296c-0.3,3.2,0.8,5.9,2.5,8.5c2.3,3.4,4.4,6.8,7.6,9.3c0.1,0.2,0.1,0.4,0.3,0.4l0,0
		c0,0.2-0.1,0.4,0.3,0.3l0,0c0.3,2.2-0.7,3.1-3,2.8c-0.3-0.1-0.6-0.2-0.9-0.2c-2-0.6-3.4-1.9-4.7-3.4c-2.5-3-4.9-6.1-8-8.7
		c-1.7-1.4-2.5-3.2-2.4-5.3c0.3-0.4,0.2-0.9,0.2-1.4c0-0.8,0-1.6,0-2.4C66.1,296.7,68.8,296.9,71.5,296z"/>
	<path class="st4" d="M62.4,281.1c-2.3-4.4-4.7-8.6-7.7-12.6c-6-7.8-13.1-14.4-21.8-19.3c-2-1.1-4-2-6.3-2.5
		c-0.4-0.1-1.1-0.1-0.9-0.7c0.1-0.7,0.7-0.3,1.2-0.2c2.9,0.7,5.6,1.9,8.1,3.4c11.3,6.9,20.1,16.2,26.5,27.8c0.3,0.6,0.6,1.1,0.9,1.7
		C62.3,279.5,62.4,280.3,62.4,281.1z"/>
	<path class="st1" d="M413.4,235.4c-5.2-0.2-9.1-2.7-12.3-6.6c-1.9-2.4-2.9-5.1-3.3-8.2c-0.2-1.8,0.2-3.6,0.9-5.3
		c0.4-0.9,1.2-1.3,2.2-0.8c5.2,2.1,8.7,5.9,11,11c1.3,3,3,5.8,5.8,7.7c0.9,0.7,0.7,1.1-0.2,1.4C416.1,235.1,414.8,235.4,413.4,235.4
		z"/>
	<path class="st1" d="M408,209.6c4.8,0.3,8.6,2.4,11.6,6c2.5,2.9,3.8,6.3,3.8,10.1c0,1.7-0.6,3.3-1.3,4.9c-0.6,1.2-1.2,1.3-2.3,0.6
		c-2.2-1.5-3.7-3.7-4.8-5.9c-1.4-2.8-2.9-5.5-5.1-7.6c-1.8-1.8-3.9-3.2-6.3-4.2c-0.8-0.3-1.3-0.7-1.4-1.5c-0.1-0.9,0.7-1.1,1.3-1.4
		C404.9,209.8,406.4,209.5,408,209.6z"/>
	<path class="st5" d="M118.8,146.1c-0.6-3-1.6-6-2.4-9c-0.7-2.5-1.4-5.1-2.2-7.7c-0.1-0.4-0.1-0.9-0.2-1.3c0.9,1.1,2.3,1.3,3.6,1.3
		c3.3,0.1,6.5-0.6,9.7-1.4v0.1c2.4,9,4.8,17.9,7.2,26.9c0.1,0.2,0.2,0.3,0.2,0.5c-2.4,0.8-4.6,2.3-7.2,2.5c-2,0.2-4-0.2-5.8-1.1
		c-0.2-0.8-0.4-1.6-0.6-2.4C120.4,151.7,119.9,148.8,118.8,146.1z"/>
	<path class="st8" d="M111.4,119.7c-1.2-0.6-1.8-1.7-2.7-2.7c-1.8-1.9-3.5-3.9-5.6-5.5c-3.5-2.8-7.5-4.3-12-4
		c-1.1,0.1-1.4-0.2-1.3-1.3c0.1-1.1,0.1-2.2,0.1-3.3c0-0.7,0.2-1,1-0.9c1.2,0.2,2.4,0.3,3.5,0.5c2.3,0.3,4.5-0.9,5.8-3.2
		c1.1-2,1.5-4.3,1.8-6.5c0.1-0.8,0.2-1.5,0.3-2.3c0.2-0.4,0.4-0.8,0.7-1.3c1.1,2.1,1.4,4.4,2,6.7c0.9,3,1.7,6.1,2.5,9.2
		c0.8,2.9,1.7,5.9,2.4,8.8C110.4,115.8,111.2,117.7,111.4,119.7z"/>
	<path class="st7" d="M109.9,113.9c-0.8-2.9-1.7-5.9-2.4-8.8c2.2,1.8,4.8,1.5,7.2,1.2c2.2-0.3,4.4-0.8,6.6-1.3
		c0.3,2.4,1.3,4.7,1.8,7.1c0.1,0.4,0.1,0.8,0.2,1.2C118.9,114.4,114.4,115.9,109.9,113.9z"/>
	<path class="st8" d="M118.8,146.1c1.1,2.7,1.6,5.6,2.5,8.4c0.2,0.8,0.4,1.6,0.6,2.4c-2.4-0.4-4.6-1.7-6.8-2.5
		c-3.8-1.6-7.5-3.4-11-5.8c0-4.8,0.5-9.6,0.9-14.4c0-0.2,0.2-0.4,0.3-0.6c4.2,3.7,8.2,7.6,12.2,11.6
		C117.9,145.4,118.2,145.9,118.8,146.1z"/>
	<path class="st8" d="M46.1,274.4c-0.3,0.2-0.5,0-0.6-0.3C45.9,273.8,46,274.1,46.1,274.4z"/>
	<path class="st8" d="M46.4,274.8c-0.2-0.1-0.4-0.2-0.3-0.4C46.3,274.4,46.4,274.5,46.4,274.8z"/>
	<path class="st5" d="M109.9,113.9c4.5,2,9,0.6,13.3-0.6c0.1,0,0.2,0.1,0.3,0.1c0.6,2.4,1.2,4.9,1.9,7.3c0.1,0.3,0.2,0.6,0.5,0.8
		c-0.1,0.1-0.1,0.2-0.1,0.2c-0.3,0.1-0.6,0.1-0.9,0.2c-4.1,0.8-8.2,2-12.3,0.3l0,0c0.1-0.2-0.1-0.4-0.3-0.4c-0.2-0.5-0.4-1-0.6-1.5
		c0-0.2,0.1-0.5-0.2-0.6h0.1C111.2,117.7,110.4,115.8,109.9,113.9z"/>
	<path class="st7" d="M112.5,122.2c4.2,1.7,8.2,0.5,12.3-0.3c0.3-0.1,0.6-0.1,0.9-0.2c0.6,2.1,1.1,4.2,1.7,6.3
		c-3.2,0.9-6.4,1.5-9.7,1.4c-1.3-0.1-2.7-0.3-3.6-1.3C113.6,126.1,112.8,124.2,112.5,122.2z"/>
	<path class="st1" d="M91.5,87.2c-0.1,0.8-0.5,1.2-1.3,1.2c-0.8,0-1.2-0.5-1.2-1.2c0-0.8,0.5-1.3,1.3-1.3
		C91.1,86,91.4,86.5,91.5,87.2z"/>
	<path class="st1" d="M99.6,87.5c-0.7-0.1-1.2-0.5-1.2-1.3c0.1-0.7,0.5-1.2,1.3-1.2c0.8,0.1,1.2,0.5,1.2,1.2
		C100.8,87,100.3,87.4,99.6,87.5z"/>
	<path class="st7" d="M112.2,121.7c0.3,0.1,0.3,0.2,0.3,0.4C112.4,122.1,112.3,121.9,112.2,121.7z"/>
	<path class="st8" d="M111.3,119.7c0.3,0.1,0.2,0.3,0.2,0.6C111.4,120.1,111.3,119.9,111.3,119.7z"/>
	<path class="st0" d="M90.3,108.1c-0.1,0-0.1,0-0.1-0.1V108C90.3,108,90.3,108,90.3,108.1L90.3,108.1z"/>
	<path class="st9" d="M448.1,117.3c-1.8,1.8-4.2,2.5-6.4,3.3c-6.8,2.2-13.7,2.9-20.7,3.2c-8.1,0.3-15.9-0.7-23.5-3.2
		c-2.1-0.7-4.2-1.6-5.9-3.2c1.5-0.9,2.9-1.9,4.6-2.5c6.1-2.3,12.5-3.3,18.9-3.5c6.8-0.3,13.5-0.1,20.1,1.3
		C439.7,113.5,444.3,114.5,448.1,117.3z M434.3,121.1c2-0.3,4-1.1,5.5-2.6c0.4-0.4,0.8-0.8,0.6-1.4c-0.2-0.6-0.8-0.6-1.3-0.6
		c-2.3,0-4.2,0.8-5.9,2.3c-0.4,0.4-1.1,0.9-0.8,1.6C432.6,121.1,433.5,121,434.3,121.1z"/>
	<path class="st5" d="M448.1,117.3c-3.9-2.8-8.4-3.8-12.9-4.8c-6.6-1.4-13.4-1.6-20.1-1.3c-6.5,0.3-12.8,1.2-18.9,3.5
		c-1.7,0.6-3.1,1.6-4.6,2.5c-1.9-1.1-2-2-0.3-3.3c3.9-2.8,8.3-4.1,12.8-5c6.2-1.2,12.5-1.7,18.8-1.4c5.8,0.3,11.5,0.9,17.1,2.5
		c2.7,0.8,5.3,1.8,7.7,3.3c0.3,0.2,0.6,0.4,0.9,0.7C450.2,115.4,450.1,116.2,448.1,117.3z"/>
	<path class="st1" d="M63.3,299.5c-0.1,2.2,0.8,3.9,2.4,5.3c3,2.5,5.5,5.7,8,8.7c1.3,1.5,2.8,2.8,4.7,3.4c0.3,0.1,0.6,0.2,0.9,0.2
		c2.3,0.3,3.3-0.6,3-2.8c1.1,0.8,2.2,1.6,3.3,2.4c2,1.6,1.9,3.6-0.6,4.6c-3.4,1.5-6.8,1.5-10.2,0c-1.8-0.8-3.2-2-3.9-3.9
		c-1.2-2.9-3.3-4.9-6.3-6.3c-3.5-1.7-4.1-3.1-3.3-7.2c0.6-1.5,0.6-3.3,1.5-4.8h0.1L63.3,299.5z"/>
	<path class="st4" d="M63.3,299.5h-0.1H63c-6.8-12.2-17.3-19.4-30.4-23.2c-0.1,0-0.2,0-0.3-0.1c-0.4-0.2-1.3-0.1-1.1-0.8
		c0.2-0.7,0.8-0.3,1.3-0.2c0.9,0.2,1.8,0.4,2.7,0.8c10.1,3.4,18.7,8.9,25.2,17.5c1.1,1.4,2,3,3.1,4.5
		C63.4,298.5,63.5,299,63.3,299.5z"/>
	<path class="st5" d="M143.2,128.5c0.1,0.1,0.1,0.1,0.1,0.2C143.3,128.7,143.2,128.7,143.2,128.5
		C143.2,128.6,143.2,128.5,143.2,128.5z"/>
	<path class="st1" d="M297.5,365.6c-0.7,0.4-1.4,0.3-2-0.2c0.4-1.2,0.9-2.4,1.3-3.6c1.2-2.2,2.5-4.3,4.2-6.1
		c1.3-1.2,2.5-2.3,4.2-2.9c3.8-1.7,7.3-0.2,8.7,3.7c0.8,2.2,0.9,4.5,0.5,6.8c-0.6-0.3-1.2-0.7-1.8-1c0.2-1.4,0-2.8-0.3-4.2
		c-0.5-2.8-2.8-4.5-5.3-3.9c-1.6,0.4-3,1.2-4.1,2.5c-1.8,1.4-3,3.3-4,5.4C298.2,363.2,297.7,364.3,297.5,365.6z"/>
	<path class="st1" d="M281.6,352.7c1.2-2.2,2.5-4.2,4.1-6c1.1-0.9,2.2-1.9,3.4-2.5c4.9-2.5,9.6,0.1,9.9,5.6c0.1,1.5,0,3-0.1,4.5
		c-0.6-0.3-1.2-0.7-1.9-1c-0.1-1.7,0.2-3.4-0.3-5c-0.9-2.7-3.1-3.8-5.7-2.9c-1.3,0.5-2.5,1.3-3.5,2.3c-1.6,1.5-2.9,3.2-3.8,5.1
		c-0.9,1.3-1.2,2.8-1.8,4.1c-0.6-0.2-1.4,0.4-1.8-0.4C280.6,355.3,281.1,353.9,281.6,352.7z"/>
	<path class="st1" d="M312.3,370.4c1.2-2.1,2.5-4.2,4-6c1.1-0.9,2.2-1.9,3.4-2.5c4.5-2.3,8.4-0.7,9.6,4.3c0.5,1.9,0.7,3.9,0.2,5.9
		c-0.6-0.3-1.2-0.6-1.7-0.9c0.2-1.8,0.1-3.6-0.6-5.3c-0.9-2.6-3.2-3.6-5.8-2.6c-1.3,0.5-2.4,1.3-3.4,2.3c-1.7,1.5-3,3.3-3.9,5.4
		c-0.8,1.2-1.1,2.5-1.6,3.9c-0.7-0.1-1.4,0.1-1.9-0.5C311.3,373,311.8,371.7,312.3,370.4z"/>
	<path class="st1" d="M220.6,321.4c-0.7,0.1-1.4,0.2-2-0.3c0.5-1.3,0.9-2.6,1.4-3.9c1.2-2.1,2.4-4.2,4.1-6c0.9-0.7,1.7-1.5,2.7-2.2
		c4.9-3.1,9.6-1.1,10.6,4.7c0.3,1.7,0.3,3.4-0.1,5.1c-0.6-0.3-1.2-0.7-1.8-1c0.4-2.3,0.2-4.5-1.1-6.5c-0.8-1.4-2.1-1.9-3.8-1.7
		c-1.9,0.3-3.4,1.2-4.7,2.6c-1.7,1.4-2.9,3.2-3.8,5.2C221.5,318.7,221.1,320,220.6,321.4z"/>
	<path class="st1" d="M251.4,339.1c-0.7,0.1-1.4,0.2-2-0.3c0.5-1.3,0.9-2.6,1.4-3.9c1.2-2.1,2.4-4.2,4.1-6c0.9-0.7,1.7-1.5,2.7-2.2
		c4.9-3.1,9.6-1.1,10.6,4.7c0.3,1.7,0.4,3.4-0.1,5.1c-0.6-0.3-1.2-0.7-1.8-1c0.4-2.3,0.2-4.5-1.1-6.5c-0.8-1.4-2.1-1.9-3.8-1.7
		c-1.9,0.3-3.4,1.2-4.7,2.6c-1.7,1.4-2.9,3.2-3.8,5.2C252.2,336.4,251.7,337.7,251.4,339.1z"/>
	<path class="st1" d="M333.6,374.4c-1.8,1.4-3,3.3-4,5.4c-0.9,1.2-1.1,2.6-1.7,3.9c-0.6-0.1-1.3,0.1-1.8-0.5
		c0.4-1.2,0.9-2.4,1.3-3.6c1.2-2.2,2.5-4.3,4.2-6.1c1.2-1.1,2.4-2.2,3.9-2.8c4-1.9,7.6-0.3,9,3.8c0.7,2.2,0.8,4.3,0.4,6.5
		c-0.7-0.2-1.2-0.6-1.8-1c0.2-1.9,0.1-3.9-0.7-5.7c-1-2.1-2.7-2.9-4.9-2.4C336,372.3,334.6,373,333.6,374.4z"/>
	<path class="st1" d="M205.4,312.5c-0.7,0.2-1.4,0.2-2-0.2c0.4-1.3,0.9-2.5,1.4-3.8c1.1-2.2,2.5-4.2,4.1-6c1.3-1.2,2.7-2.3,4.4-3
		c3.5-1.4,6.8-0.1,8.2,3.4c0.9,2.3,1.1,4.8,0.6,7.2c-0.6-0.3-1.2-0.7-1.8-1c0.1-2.2,0.1-4.3-1.1-6.3c-0.9-1.6-2.3-2.2-4-1.9
		c-1.8,0.3-3.3,1.3-4.5,2.6c-1.7,1.5-3,3.4-3.9,5.5C206,310,205.6,311.3,205.4,312.5z"/>
	<path class="st1" d="M235.5,326.2c1.1-2.2,2.4-4.2,4.1-6c1.3-1.2,2.7-2.4,4.4-3c3.5-1.4,6.8-0.1,8.2,3.4c0.9,2.3,1.1,4.8,0.6,7.2
		c-0.6-0.3-1.2-0.7-1.7-1c0.1-2,0.1-4-0.8-5.9s-2.3-2.5-4.4-2.2c-1.8,0.3-3.2,1.3-4.4,2.5c-1.7,1.5-3,3.4-3.9,5.5
		c-0.8,1.1-1.1,2.5-1.6,3.7c-0.6-0.1-1.3,0.1-1.8-0.3C234.5,328.7,235,327.4,235.5,326.2z"/>
	<path class="st1" d="M266.6,348.1c-0.6-0.1-1.3,0.1-1.8-0.3c0.4-1.2,0.8-2.4,1.2-3.6c1.2-2.2,2.5-4.4,4.3-6.3
		c1.7-1.5,3.5-3,5.8-3.5c2.8-0.6,5.1,0.5,6.4,3c1.3,2.5,1.5,5.3,1,8c-0.6-0.3-1.1-0.6-1.7-0.9c0.1-2,0.1-4.2-0.9-6
		c-0.9-1.8-2.3-2.5-4.3-2.2c-1.8,0.3-3.3,1.3-4.5,2.6c-1.7,1.5-3,3.4-3.9,5.5C267.4,345.5,267.1,346.8,266.6,348.1z"/>
	<path class="st5" d="M182.7,309.2c8.4,4.8,16.9,9.7,25.3,14.5c29.6,17,59,34.1,88.6,51.1c4.9,2.8,9.9,5.6,14.8,8.6
		c0.9,0.6,1.6,0.5,2.5-0.1c1.2-0.8,2.5-1.5,3.9-2c-1.2,1.4-3,2-4.5,3.2c3.3,1.9,6.5,3.8,10.1,5.9c-0.9,0.4-1.3-0.1-1.7-0.3
		c-2.7-1.5-5.3-3-7.9-4.6c-0.9-0.6-1.6-0.5-2.5,0.1c-27,15.7-54,31.3-81,46.8c-0.8,0.4-1.4,1.1-2.5,0.8c28-16.2,55.9-32.4,84.2-48.7
		c-3.4-1.9-6.7-3.8-9.9-5.6c-0.1-0.1-0.2-0.2-0.3-0.2c-6.1-3.6-12.3-7.2-18.5-10.7c-6.9-4-13.9-8-20.8-12c-0.4-0.3-0.9-0.4-1.3-0.7
		c-0.2-0.1-0.3-0.2-0.5-0.3c-7.4-4.3-14.9-8.6-22.3-12.9c-2.7-1.5-5.4-3.1-8.1-4.6c-0.2-0.1-0.4-0.2-0.6-0.3c-6.9-4-13.8-8-20.6-12
		c-8.7-5-17.5-10.1-26.3-15.1C182.5,309.6,182.5,309.3,182.7,309.2z"/>
	<path class="st7" d="M261.9,401.9c-0.4,1.3-1.3,1.3-2.3,0.8c-1.8-0.9-3.2-2.3-4.3-4c-0.4-0.6-0.9-0.9-1.5-0.9
		c-0.6,0-1.3-0.3-1.7,0.3c-0.3,0.6,0.4,0.8,0.6,1.3c0.1,0.3,0.4,0.5,0.2,0.8c-0.3,0.3-0.6,0.1-0.9,0.1c-1-0.1-2-0.5-3-0.3
		c-0.9,0.1-1.7,0.4-1.3,1.5c0.2,0.7-0.2,0.8-0.7,0.9c-0.8,0.3-1.8,0.2-2.2,1.3c-0.2,0.4-0.8,0.2-1.3,0.3c-2,0.1-4-0.2-6,0.2
		c-1.2,0.2-1.2,0.8-0.8,1.5c0.4,0.9,0.8,1.7-0.4,2.2c-0.2,0.1-0.4,0.5-0.3,0.7c0.3,1.5-0.7,1.5-1.8,1.4c-1-0.1-2,0-3,0
		c-1.8,0-2.3,0.3-2.7,2c-0.2,0.7-0.3,1.3-1.3,1.3c-0.4-0.1-0.9,0.2-1.1-0.3c-0.2-0.7,0.4-0.5,0.8-0.7c0.6-0.3,0.4-0.9,0.5-1.5
		c0.1-1.8,0.8-2.4,2.6-2.1c0.9,0.2,1.8,0.3,2.7,0.3c1.4,0.1,1.4-0.8,1.5-1.8c0.2-0.7,2-0.6,1-2.1c-0.6-0.8,0.1-1.8,1.3-2.2
		c1.7-0.5,3.5-0.4,5.2-0.3s2.7-1.2,4.1-1.6c0.2-0.1,0.3-0.3,0.3-0.6c0.1-1.7,0.6-2,2.3-1.9c0.4,0.1,0.9,0.1,1.4,0.1
		c0.6,0.1,1.1,0.1,0.9-0.9c-0.2-1.2,0.7-1.8,2.3-1.5c1.1,0.2,1.3-0.2,1.3-1.2c-0.1-2,0.8-2.7,2.7-1.9c0.9,0.3,2,0.4,2.6,1.5
		c-1.1,0.1-1.8-0.4-2.6-0.6c-1.3-0.3-1.9,0.1-1.5,1.5c0.3,1.3,1.2,2.2,2.4,2.6c1.7,0.6,3.2,1.5,4.2,3
		C261.9,401.7,261.9,401.8,261.9,401.9z M257.7,399.7c-0.1,0-0.1-0.1-0.1-0.1C257.7,399.7,257.7,399.7,257.7,399.7
		c0.4,1.2,1.3,1.8,2.7,1.9C259.7,400.5,258.8,399.9,257.7,399.7z"/>
	<path class="st7" d="M184.1,340.2c0.3-1.8,1.8-1.7,3.1-1.9c0.8-0.1,1.7-0.2,2.5,0c1.9,0.4,3.4-0.7,5-1.4c0.3-0.2,0.5-0.3,0.6-0.7
		c0.1-1.5,0.7-2,2.3-1.9c0.4,0.1,0.9,0.1,1.4,0.1c0.7,0,1.2,0.1,0.9-0.9c-0.2-1,0.3-1.5,1.4-1.5c0.7,0,1.4-0.1,2.2,0.2
		c-0.1-0.7-0.1-1.2-0.1-1.7c0-1.5,0.6-2.1,2.2-1.8c0.9,0.2,1.8,0.7,2.7,1.1c0.2,0.1,0.4,0.3,0.3,0.6c-0.2,0.4-0.4,0.2-0.7,0.1
		c-0.7-0.3-1.4-0.6-2.2-0.7c-1-0.1-1.3,0.4-1.1,1.2c0.3,1.1,0.7,2.2,1.9,2.7c1.1,0.5,2.2,0.8,3.1,1.5c0.2,0.2,0.4,0.2,0.6,0.4
		c0.4,0.6,1.3,1.1,0.9,2c-0.3,0.8-1.2,0.4-1.8,0.5c-0.2,0-0.4,0-0.6,0c-0.1-0.1-0.2-0.2-0.3-0.3c-1.4-1.1-2.8-2.2-3.7-3.8
		c-0.4-0.8-1.2-0.9-2-0.9c-0.4,0-1-0.2-1.3,0.3c-0.3,0.5,0.3,0.7,0.5,1.1c0.2,0.3,0.5,0.6,0.3,1c-0.3,0.6-0.7,0.2-1.1,0.2
		c-1,0-1.9-0.4-2.9-0.3c-0.8,0.1-1.5,0.4-1.3,1.4c0.2,0.8-0.2,0.9-0.8,1.2c-0.6,0.2-1.5,0.1-1.7,0.7c-0.4,1.1-1.2,0.8-1.9,0.9
		c-2,0.1-3.9-0.2-5.9,0.3c-0.8,0.2-1.1,0.5-0.7,1.3c0.4,1,0.8,1.9-0.5,2.6c-0.1,0.1-0.2,0.3-0.2,0.5c0.3,1.7-0.8,1.6-1.9,1.5
		c-0.8-0.1-1.7,0-2.5,0c-2.2,0-2.4,0.1-3,2.2c-0.3,1.2-1.1,1.2-2,1.2c-0.2,0-0.5-0.1-0.5-0.3c-0.1-0.3,0.2-0.4,0.4-0.4
		c0.9-0.1,0.9-0.7,0.9-1.4c0-0.4,0-0.9,0-1.4c0.8-0.9,1.8-0.9,2.9-0.8c0.8,0.1,1.5,0.3,2.3,0.3c0.9,0.1,1.8,0,1.7-1.3
		c0-0.4,0.1-0.8,0.6-1C185,341.8,184.8,341.1,184.1,340.2z M206.4,334.6c0.7,1.3,1.5,1.8,2.4,2.3c0.2,0.1,0.5,0.1,0.6-0.1
		c0.3-0.3-0.1-0.5-0.2-0.7C208.5,335.4,207.6,335.1,206.4,334.6z"/>
	<path class="st7" d="M193.8,359c1.1,0.3,2,0.7,3.2,1.4c-1.2,0.3-1.8-0.2-2.5-0.4c-0.6-0.1-1.1-0.4-1.5,0.1c-0.4,0.4-0.2,1,0,1.5
		c0.5,1.6,1.7,2.3,3.2,2.8c1,0.3,1.8,0.9,2.5,1.6c0.6,0.6,1.2,1.2,0.6,1.9c-0.6,0.7-1.5,0.6-2.3,0.1c-1.5-1-2.9-2.1-3.9-3.7
		c-0.4-0.8-1.1-1.1-1.9-1.2c-0.6-0.1-1.2-0.1-1.5,0.3c-0.4,0.6,0.3,0.7,0.5,1.1c0.1,0.3,0.5,0.7,0.3,1c-0.2,0.4-0.7,0.2-1,0.1
		c-0.8-0.1-1.7-0.3-2.4-0.3c-0.9,0.1-1.9,0.1-1.7,1.5c0.1,0.7-0.4,0.9-0.9,1c-0.8,0.2-1.6,0.3-2,1.2c-0.3,0.4-0.8,0.3-1.3,0.3
		c-1.9,0.1-3.9-0.1-5.8,0.3c-1.2,0.2-1.6,0.7-0.9,1.8c0.6,0.9,0.4,1.4-0.4,1.9c-0.4,0.2-0.5,0.5-0.5,0.9c0,1.2-0.6,1.7-1.7,1.4
		c-1-0.2-2-0.1-3-0.2c-1.4-0.1-2.4,0.4-2.6,2c-0.1,1.1-0.8,1.7-1.9,1.6c-0.3,0-0.7-0.1-0.7-0.5c-0.1-0.3,0.2-0.5,0.5-0.6
		c0.7-0.1,0.7-0.5,0.8-1.1c0.2-2.6,0.8-3,3.4-2.4c0.6,0.1,1.2,0.2,1.8,0.3c1,0.1,1.8-0.1,1.8-1.3c0-0.3,0.1-0.7,0.2-0.8
		c1.4-0.5,1.2-1.4,0.9-2.5c-0.2-0.9,0.5-1.4,1.3-1.5c1.5-0.3,3.2-0.6,4.8-0.2c0.9,0.2,1.7,0.1,2.4-0.6c0.3-0.3,0.7-0.4,1.1-0.5
		c0.8-0.2,1.4-0.6,1.3-1.6c-0.1-0.8,0.6-1.1,1.2-1.2c0.6-0.1,1.1-0.1,1.7-0.1c1.1,0.1,1.9,0.2,1.9-1.4c0-1.1,1.3-1.2,2-1
		c1.3,0.4,1.4-0.1,1.2-1.2c-0.2-1.2,0.3-2.1,1.7-2.2C193.4,358.8,193.6,358.9,193.8,359z M195.2,365.1c-0.1,0-0.1-0.1-0.1-0.1
		C195.1,365.1,195.1,365.1,195.2,365.1c0.4,1.4,1.5,1.8,2.8,2.1C197.3,366.2,196.5,365.4,195.2,365.1z"/>
	<path class="st7" d="M271.2,365c-1.4,0.1-2.2-0.7-3.2-0.8c-1.1-0.2-1.5,0.3-1.3,1.3c0.4,1.8,1.5,2.7,3.2,3.2
		c1.1,0.3,1.9,0.9,2.7,1.7c0.6,0.6,1.1,1.2,0.5,1.9c-0.6,0.7-1.4,0.5-2.2,0.1c-1.5-0.9-2.9-2.2-3.9-3.7c-0.5-0.7-1.2-0.9-1.9-1.1
		c-0.6-0.1-1.1-0.1-1.4,0.3c-0.3,0.4,0.2,0.7,0.4,1.1c0.3,0.3,0.4,0.7,0.2,1c-0.2,0.4-0.7,0.3-1,0.2c-0.9-0.2-1.8-0.3-2.7-0.2
		c-0.9,0-1.5,0.4-1.3,1.4c0.2,0.8-0.2,0.9-0.8,1.1c-0.8,0.2-1.7,0.2-2.1,1.1c-0.2,0.4-0.8,0.2-1.2,0.3c-1.8,0.1-3.6,0.1-5.4,0.3
		c-1.9,0.2-2.1,0.6-1.3,2.1c0,0.1,0.1,0.1,0.1,0.1c0.2,0.3,0.2,0.9-0.1,1c-1.7,0.3-0.2,3.5-2.7,2.8c-0.8-0.2-1.7-0.1-2.6-0.2
		c-1.5-0.3-2.7,0.4-3,2c-0.2,1.1-0.8,1.6-1.9,1.4c-0.2-0.1-0.5-0.1-0.6-0.3c-0.1-0.3,0.1-0.4,0.3-0.5c1-0.3,1-1.1,1-1.9
		c0.1-1.6,0.8-2.1,2.4-1.8c1.1,0.2,2,0.5,3.2,0.4c0.8-0.1,1.4-0.2,1.2-1.3c-0.1-0.1,0-0.3,0.1-0.4c1.4-0.8,1.2-1.9,1.2-3.3
		c0-1.1,1.2-1.3,2.2-1.4c0.9-0.1,2-0.2,2.9,0c2.1,0.5,3.5-1,5.3-1.5c0.3-0.1,0.4-0.3,0.4-0.7c0.1-1.7,0.5-2,2.2-2
		c0.3,0,0.6,0.1,0.8,0.1c1,0.2,2,0.6,1.5-1.2c-0.2-0.8,0.8-1.4,2-1.2c1.1,0.2,1.7,0.2,1.3-1.2c-0.3-1.2,0.7-2.2,1.9-2
		C268.8,363.4,270,363.8,271.2,365z M272.3,371.5c-1-1.2-1.9-1.8-3.3-2.2C269.8,370.6,270.7,371.3,272.3,371.5z"/>
	<path class="st7" d="M205.5,387.3c0,0.6,0.7,1.3-0.1,1.8c-0.8,0.4-1.7,0.3-2.3-0.2c-1.3-0.9-2.6-1.9-3.4-3.4
		c-0.4-0.7-1-1.1-1.8-1.3c-0.6-0.1-1.1-0.3-1.5,0.2s0.1,0.9,0.3,1.3c0.6,0.9,0.2,1.1-0.7,1c-0.9-0.2-1.9-0.3-2.9-0.3
		c-0.9,0-1.5,0.3-1.4,1.3c0.1,0.7-0.3,1.1-1,1.2c-0.7,0.2-1.5,0.2-1.9,1.2c-0.1,0.3-0.5,0.2-0.8,0.2c-2-0.1-3.9,0.2-5.9,0.3
		c-1.4,0.1-1.9,0.6-1.3,1.9c0.4,0.9,0.3,1.4-0.5,1.9c-0.3,0.2-0.6,0.5-0.4,0.9c0.5,1.4-0.5,1.3-1.3,1.4c-1,0.1-1.9-0.3-2.9-0.3
		c-2.1-0.1-2.6,0.3-3.1,2.3c-0.3,1.1-1,1.4-2,1.3c-0.2-0.1-0.4-0.2-0.5-0.4c-0.1-0.3,0.2-0.4,0.4-0.4c1.1-0.2,1.1-0.9,1.1-1.8
		c0.1-1.7,0.8-2.3,2.5-1.9c0.7,0.1,1.3,0.3,2,0.4c1.1,0.1,1.7,0,2.3-1.4c0.5-1.3,1.2-2.3,1.1-3.9c-0.1-0.7,0.9-1.1,1.7-1.1
		c0.9,0,1.9-0.2,2.9,0c2.2,0.4,3.9-0.6,5.8-1.5c0.4-0.2,0.5-0.4,0.3-0.9c-0.3-1,0.2-1.4,1.1-1.7c0.9-0.2,1.8-0.1,2.7,0.1
		c0.6,0.2,1.1,0.2,0.8-0.8c-0.3-1.2,0.6-1.9,1.9-1.7c1.1,0.2,1.6,0.3,1.4-1.2c-0.2-1.4,0.7-2.3,2-2c1.1,0.2,2.2,0.6,3.2,1.4
		c-1.1,0.4-1.8-0.2-2.6-0.4c-0.4-0.1-0.9-0.3-1.3,0.2c-0.4,0.4-0.4,0.9-0.2,1.4c0.5,1.1,1.1,2.1,2.3,2.6c1.3,0.5,2.5,1.1,3.6,2
		C205.3,387,205.4,387.1,205.5,387.3z M201.4,385.9c0.8,1.3,1.6,2,3,2.2C203.6,386.8,203.2,386.5,201.4,385.9z"/>
	<path class="st7" d="M219.8,391.1c0.9,0.5,1.9,0.3,2.8-0.8c0.4-0.6,1.2-0.3,1.8-0.1c1,0.3,1.4-0.1,1.3-1.2
		c-0.3-1.8,0.1-2.2,1.9-1.7c1.2,0.3,1.8,0.2,1.9-1.1c0.1-0.4,0.3-0.8,0.7-1c0.4-0.2,0.9-0.3,1.2,0.1c0.4,0.4-0.2,0.6-0.4,0.8
		c-0.8,0.9-0.7,2.1,0.4,2.8c1.1,0.8,2.1,1.5,2.7,2.7c0.2,0.4,0.7,0.9,0.2,1.5c-0.4,0.4-1,0.3-1.5,0.1c-1.4-0.6-2-1.8-2.7-3
		c-0.3-0.6-0.6-1.3-1.4-1.1c-0.8,0.2-1.7,0.3-1.3,1.6c0.2,0.7-0.1,1.2-1,0.9c-0.5-0.2-1.1-0.2-1.6-0.3c-0.7-0.1-1.4-0.2-1.5,0.8
		c-0.1,0.9-0.9,0.7-1.5,0.7c-1.9,0.1-1.9,0.1-1.3,1.8c0.3,1-0.2,1.7-1.2,1.4c-0.6-0.1-1.1-0.3-1.5-0.6c-0.5-0.2-0.8-0.2-0.9,0.4
		c-0.2,0.9-0.9,1-1.5,0.7c-1.3-0.6-2.2,0.2-3.3,0.6c-0.7,0.2-0.3,0.7-0.2,1.2c0.2,0.9-0.4,1.8-1.3,1.7c-0.9-0.1-1.8-0.3-2.7-0.6
		c-0.3-0.1-0.8-0.2-0.6-0.7c0.2-0.4,0.5-0.2,0.8-0.1c1.9,0.3,2.3-0.1,2.3-1.9c0-0.2,0-0.4,0.1-0.5c0.3-0.5,3.2-1.3,3.8-1.1
		c0.8,0.3,1.5,0.7,1.6-0.7c0-0.7,0.4-0.8,0.9-0.5c0.2,0.1,0.5,0.2,0.7,0.4c0.5,0.2,1.1,0.6,1.5,0.1c0.4-0.5-0.1-0.9-0.4-1.3
		c-0.3-0.4-0.4-0.9-0.2-1.3C218.3,391.1,218.9,391.1,219.8,391.1z"/>
	<path class="st7" d="M266.4,390.9c-0.6-0.2-1.5-0.3-2.4-0.6c-0.2-0.1-0.4-0.2-0.4-0.4c0-0.3,0.3-0.4,0.5-0.4c0.3,0,0.7,0,0.9,0
		c1.5,0,1.8-0.3,1.7-1.9c-0.1-0.3-0.1-0.7,0.2-0.7c1.3-0.2,2.4-1.5,3.9-0.8c0.6,0.3,1.3,0.4,1.3-0.7c0.1-0.9,0.6-0.8,1.2-0.5
		c0.3,0.2,0.6,0.3,0.9,0.4c0.4,0.2,0.8,0.3,1.1-0.1c0.3-0.4,0.1-0.8-0.2-1.1c-0.5-0.5-0.7-1.1-0.2-1.6c0.4-0.5,0.9-0.6,1.6-0.4
		c0.9,0.2,1.8,0.8,2.5-0.6c0.4-0.7,1.5-0.4,2.3-0.4c0.9,0.1,1.2-0.3,1-1.2c-0.3-1.5,0.3-2.2,1.9-1.7c1,0.3,1.8,0.6,1.9-0.9
		c0-0.5,0.4-0.9,0.9-1.1c0.4-0.2,0.9-0.5,1.2,0.1c0.3,0.5-0.3,0.6-0.6,0.7c-0.9,0.8-0.8,2.2,0.3,2.9c0.9,0.7,2,1.3,2.5,2.4
		c0.3,0.6,0.7,1.2,0.2,1.7c-0.5,0.5-1.3,0.3-1.8-0.1c-1.1-0.7-2-1.7-2.4-2.9c-0.3-1.1-1.1-1-1.9-0.8c-0.8,0.2-1.1,0.7-0.8,1.5
		c0.2,0.7-0.1,0.9-0.8,0.9c-0.6-0.1-1.2-0.2-1.8-0.3c-0.7-0.1-1.4-0.2-1.7,0.9c-0.2,0.8-1.2,0.8-1.9,0.8c-1,0-1.6,0.2-1,1.4
		c0.2,0.4,0.5,0.9,0.1,1.4c-0.4,0.4-1.1,0.4-1.5,0.2c-1-0.3-1.9-0.9-2.5,0.6c-0.1,0.3-0.6,0.3-1,0.1c-1.3-0.8-2.3,0.3-3.5,0.6
		c-0.4,0.1-0.2,0.6-0.1,0.9C268.4,390.5,268,390.9,266.4,390.9z"/>
	<path class="st7" d="M214.8,370.3c1.1,0.4,2.1,0.3,3-0.8c0.5-0.6,1.3-0.2,1.9-0.1c0.8,0.1,1.4,0.2,1.1-1.1c-0.5-2,0.1-2.5,2.1-1.9
		c0.9,0.3,1.4,0.3,1.6-0.8c0.1-0.7,0.4-1.4,1.3-1.4c0.3,0,0.6-0.1,0.7,0.3c0.1,0.3-0.1,0.4-0.2,0.6c-1.2,1.4-1.1,2.2,0.4,3.3
		c1,0.7,1.9,1.5,2.4,2.5c0.2,0.4,0.3,1-0.1,1.4c-0.4,0.4-0.8,0.1-1.2,0c-1.7-0.4-2.3-1.8-2.9-3.1c-0.4-0.9-1-1.3-2-0.9
		c-0.6,0.2-1.1,0.5-0.8,1.3c0.3,1-0.1,1.4-1.1,1.1c-0.5-0.2-1.1-0.2-1.6-0.3c-0.6-0.1-1.3,0-1.4,0.6c-0.3,1.2-1.1,1.1-1.9,1.1
		c-1.3,0-1.5,0.3-0.9,1.6c0.2,0.4,0.3,0.9-0.1,1.3c-0.4,0.4-0.8,0.6-1.4,0.3c-0.3-0.1-0.7-0.2-1.1-0.4c-0.6-0.3-1.1-0.6-1.3,0.4
		c-0.2,0.8-0.9,0.7-1.5,0.5c-1.3-0.5-2.2,0.2-3.3,0.6c-0.4,0.2-0.4,0.5-0.3,0.9c0.3,1.2-0.1,1.9-1.3,1.8c-0.9-0.1-1.8-0.3-2.7-0.6
		c-0.3-0.1-0.7-0.2-0.6-0.7c0.1-0.4,0.5-0.3,0.8-0.2c0.6,0.2,1.1,0.2,1.6,0c0.6-0.2,1.1-0.7,0.8-1.3c-0.5-1.2,0.2-1.3,1.1-1.7
		c1.1-0.4,2-1.2,3.2-0.3c0.4,0.3,1.1,0.2,1.1-0.6c-0.1-1.3,0.6-0.9,1.3-0.6c0.2,0.1,0.5,0.3,0.8,0.3c0.4,0.1,0.9,0.3,1.2-0.1
		s0.1-0.8-0.3-1.1c-0.4-0.4-0.6-0.9-0.4-1.5C213.5,370.3,214.1,370.4,214.8,370.3z"/>
	<path class="st7" d="M224.2,341.6c0.3-0.1,0.6-0.1,0.9-0.2c0.3-0.1,0.4,0.1,0.6,0.3c0.1,0.3,0,0.4-0.2,0.6
		c-1.3,1.5-1.2,2.4,0.5,3.5c0.9,0.6,1.7,1.4,2.2,2.4c0.2,0.4,0.6,0.9,0.2,1.4c-0.5,0.5-1.1,0.2-1.5,0c-1.4-0.6-2.2-1.7-2.8-2.9
		c-0.4-0.9-0.8-1.3-1.7-1.1c-0.9,0.2-1.1,0.9-0.9,1.7c0.2,0.6-0.1,0.8-0.6,0.8c-0.6,0-1.1-0.1-1.7-0.1c-0.9-0.2-1.8-0.5-2.1,0.9
		c-0.2,0.8-1.2,0.6-1.8,0.6c-1.4,0.1-1.5,0.2-1.1,1.5c0.2,0.5,0.4,1,0,1.4c-0.4,0.5-1,0.4-1.5,0.1c-0.9-0.4-1.8-0.9-2.4,0.6
		c-0.2,0.4-0.8,0.3-1.3,0.2c-1.2-0.6-2.2,0.2-3.3,0.6c-0.7,0.2-0.3,0.7-0.1,1c0.4,0.8,0.1,1.3-0.7,1.5c-1.3,0.3-2.7-0.1-3.9-0.6
		c-0.3-0.1-0.2-0.4-0.2-0.7c0.1,0,0.2,0,0.3,0c2,0.6,2.9,0.1,3-1.7c0-0.2,0-0.5,0.1-0.5c1.3-0.4,2.4-1.8,4-1.1
		c0.8,0.3,1.5,0.4,1.2-0.9c-0.1-0.6,0.3-0.6,0.7-0.4c0.3,0.1,0.6,0.3,0.9,0.4c0.5,0.2,1.1,0.6,1.5,0.1c0.4-0.5-0.1-0.9-0.3-1.3
		c-0.6-1.1-0.2-1.8,1.1-1.8c0.4,0,0.8,0.1,1.2,0.2c0.4,0.1,0.9,0.3,1.2-0.2c0.8-1.1,1.7-1.3,3-0.9c1.1,0.3,1.4-0.3,1.1-1.3
		c-0.3-0.8-0.2-1.5,0.7-2C222.6,344.3,223.9,343.7,224.2,341.6L224.2,341.6z"/>
	<path class="st7" d="M147.5,361.7c0.1-0.2,0.2-0.3,0.3-0.6c0.3,0,0.7,0.1,0.9-0.1c1.1-0.6,2.2-1.1,3.4-0.3c0.3,0.2,0.8-0.1,0.8-0.3
		c0.2-1.9,1.2-0.9,1.9-0.6c0.5,0.2,0.9,0.2,1.2-0.2c0.5-0.5,0.1-0.8-0.3-1.2c-0.4-0.4-0.8-0.9-0.4-1.4c0.4-0.5,0.9-0.7,1.6-0.5
		c0.6,0.2,1.8,0.4,1.9,0.2c0.8-1.6,2.2-1.1,3.4-1.1c0.8-0.1,1.1-0.3,0.9-1.1c-0.4-1.8-0.2-1.9,1.5-2c0.7,0.1,1.3,0.2,1.9,0.3
		c0.1,0,0.1,0.1,0.1,0.1c-0.1,0-0.1-0.1-0.1-0.1c0.2-0.8,0.3-1.6,0.8-2.2c0.2-0.1,0.4-0.2,0.6-0.3c1.2,0.3,1.2,0.3,0.7,0.9
		c-1.1,1.3-1,2.2,0.4,3.3c1.3,1,2.7,2,2.8,3.9c-0.1,0.1-0.2,0.2-0.3,0.3c-2.3,0.2-3.4-1.3-4.2-3.2c-0.4-1.2-1.2-1.1-2-0.9
		c-0.9,0.2-0.7,0.9-0.6,1.5c0.2,0.9-0.4,0.9-1,0.8c-0.6-0.1-1.2-0.3-1.9-0.3c-0.7,0.1-1.4-0.2-1.4,0.9c0,0.5-0.5,0.4-0.8,0.4
		c-0.6,0.1-1.1-0.1-1.6,0.2c-0.6,0.3-1,0.6-0.5,1.4c0.3,0.4,0.8,0.9,0.2,1.4c-0.5,0.5-1.1,0.4-1.7,0.2c-0.9-0.4-1.7-0.9-2.3,0.4
		c-0.2,0.4-0.8,0.3-1.2,0.2c-0.9-0.4-1.6-0.1-2.4,0.2c-0.9,0.3-2,0.4-1.1,1.8c0.2,0.3,0,0.7-0.3,0.9c-0.9,0.8-4,0.1-4.6-1
		c0.3,0,0.6,0,0.8,0c0.3,0,0.7,0.1,1.1,0c1.3-0.1,1.7-0.7,1.4-1.9C147.6,362,147.5,361.9,147.5,361.7z"/>
	<path class="st0" d="M168.1,350.5c-0.2,0.1-0.4,0.2-0.6,0.3c-1.1,0.1-1.9,0.7-2.8,1.3c-0.6,0.3-0.1,0.4,0.1,0.7
		c-1.7,0.1-1.9,0.2-1.5,2c0.2,0.8-0.1,1.1-0.9,1.1c-1.2,0.1-2.6-0.4-3.4,1.1c-0.1,0.2-1.3,0-1.9-0.2c-0.7-0.2-1.2,0-1.6,0.5
		c-0.4,0.6-0.1,1.1,0.4,1.4c0.3,0.3,0.7,0.6,0.3,1.2c-0.4,0.4-0.8,0.4-1.2,0.2c-0.8-0.4-1.8-1.3-1.9,0.6c0,0.3-0.6,0.5-0.8,0.3
		c-1.2-0.8-2.3-0.2-3.4,0.3c-0.3,0.1-0.6,0.1-0.9,0.1c1-1.3,2.6-1.8,3.9-2.6c5-3,10.1-5.9,15.1-8.8c5.3-3,10.6-6.1,15.9-9.1
		c0.4-0.2,0.8-0.3,1.3-0.5c0.7,0.8,0.9,1.6-0.3,2.2c-0.4,0.2-0.6,0.6-0.6,1c0.1,1.3-0.8,1.4-1.7,1.3c-0.8-0.1-1.5-0.3-2.3-0.3
		c-1.1-0.1-2.1-0.1-2.9,0.8c-2.2,1.3-4.5,2.6-6.7,3.9C169.1,349.5,168.3,349.6,168.1,350.5z"/>
	<path class="st0" d="M171.7,358.8c0.1-0.1,0.2-0.2,0.3-0.3c0.6,0.1,1-0.2,1.4-0.4c3.7-2.1,7.3-4.2,11-6.3
		c6.4-3.7,12.8-7.4,19.1-11.1c1.5-0.9,3.3-1.7,4.6-2.9c0.1,0.1,0.2,0.2,0.3,0.3c-0.4,1.3-1.7,1.4-2.7,1.9
		c-7.5,4.4-15.1,8.8-22.6,13.2c-7.6,4.4-15.2,8.7-22.7,13.1c-7.9,4.6-15.8,9.2-23.7,13.8c-0.3,0.2-0.5,0.4-0.9,0.2
		c0.1-0.6,0.5-0.8,0.9-1c6.5-3.8,12.9-7.5,19.4-11.2c4.9-2.8,9.8-5.6,14.7-8.5C171.2,359.3,171.5,359.1,171.7,358.8z"/>
	<path class="st0" d="M201.3,354.9c-0.1,0-0.2,0-0.3,0c-2.5,1.1-5,2.4-7.2,4.2c-0.2-0.1-0.4-0.2-0.6-0.3c0.6-1.2,1.8-1.4,2.8-2
		c6.3-3.7,12.7-7.4,19.1-11.1c4.5-2.5,8.9-5.1,13.4-7.7c0.4-0.2,1-0.4,1-1.1c0.2,0.1,0.4,0.2,0.6,0.3c-0.1,1.1-1.1,1.1-1.8,1.5
		c-1.1,0.8-2.4,1.4-3.5,2.1c-0.3,0.2-0.6,0.3-0.6,0.7l0,0c-1.4,0.2-2.6,0.9-3.6,1.9c-0.9,0.4-1,1.1-0.7,2c0.4,1.1-0.1,1.6-1.1,1.3
		c-1.3-0.4-2.2-0.2-3,0.9c-0.3,0.4-0.8,0.2-1.2,0.2c-0.4-0.1-0.8-0.2-1.2-0.2c-1.3,0-1.7,0.7-1.1,1.8c0.2,0.4,0.8,0.9,0.3,1.3
		c-0.4,0.5-1.1,0.2-1.5-0.1c-0.3-0.1-0.6-0.3-0.9-0.4c-0.4-0.2-0.8-0.1-0.7,0.4c0.3,1.3-0.4,1.2-1.2,0.9c-1.7-0.7-2.7,0.7-4,1.1
		c-0.1,0-0.1,0.3-0.1,0.5C203,353.3,202,353.7,201.3,354.9z"/>
	<path class="st7" d="M249.4,353.2c0,0.4,0,0.7,0,1.1c0.1,1-0.4,1.4-1.4,1.1c-0.7-0.2-1.4-0.1-2.2-0.2c-0.3,0-0.7,0-0.7,0.2
		c-0.1,1.5-1.2,1.1-2,1.2c-1.2,0.1-1.4,0.6-0.9,1.7c0.2,0.4,0.4,0.8,0.1,1.3c-0.4,0.6-0.9,0.4-1.4,0.3c-0.4-0.1-0.9-0.3-1.3-0.5
		c-0.5-0.3-0.8-0.4-1,0.3c-0.2,0.9-1,1-1.7,0.7c-1.2-0.5-2.1,0.2-3.2,0.6c-0.6,0.2-0.4,0.6-0.2,1.1c0.3,0.9-0.1,1.5-1.1,1.7
		c-1.1,0.2-2.2-0.4-3.2-0.6c-0.2-0.1-0.3-0.2-0.2-0.4c0.1-0.2,0.3-0.3,0.4-0.3c0.4,0,0.9,0.1,1.4,0c0.9-0.2,1.7-0.5,1.2-1.7
		c-0.1-0.3-0.2-0.8,0.1-0.8c1.3-0.3,2.2-1.5,3.7-0.9c0.6,0.2,1.5,0.6,1.6-0.7c0.1-0.6,0.5-0.6,0.9-0.4c0.4,0.2,0.8,0.4,1.2,0.6
		c0.3,0.2,0.6,0.2,0.8-0.2c0.2-0.3,0.2-0.7-0.1-1c-0.4-0.5-1.1-1-0.6-1.7c0.5-0.7,1.3-0.7,2.1-0.4c0.7,0.2,1.4,0.2,2-0.4
		c0.7-0.9,1.7-0.5,2.6-0.5s1.3-0.2,0.9-1.2c-0.2-0.5-0.2-1,0.2-1.4c0.3-0.3,0.5-0.7,1-0.6c0.6,0.2,0.7,0.6,0.7,1.1
		C249.4,352.3,249.4,352.7,249.4,353.2L249.4,353.2z"/>
	<path class="st5" d="M272.1,338.9c1.3-1.3,2.7-2.3,4.5-2.6c1.9-0.3,3.3,0.4,4.3,2.2c1,1.9,0.9,4,0.9,6
		C278.6,342.6,275.3,340.7,272.1,338.9z"/>
	<path class="st5" d="M256.8,330c1.3-1.4,2.8-2.3,4.7-2.6c1.7-0.2,2.9,0.3,3.8,1.7c1.2,2,1.5,4.2,1.1,6.5
		C263.1,333.7,259.9,331.9,256.8,330z"/>
	<path class="st5" d="M241.4,321.1c1.2-1.3,2.7-2.3,4.4-2.5c2-0.3,3.4,0.3,4.4,2.2c0.9,1.9,0.9,3.9,0.8,5.9
		C247.9,324.9,244.6,323,241.4,321.1z"/>
	<path class="st5" d="M226.1,312.3c1.3-1.4,2.8-2.3,4.7-2.6c1.7-0.2,2.9,0.3,3.8,1.7c1.2,2,1.5,4.2,1.1,6.5
		C232.4,316,229.3,314.2,226.1,312.3z"/>
	<path class="st5" d="M210.7,303.4c1.3-1.3,2.7-2.3,4.5-2.6c1.8-0.3,3.1,0.3,4,1.9c1.2,1.9,1.2,4.1,1.1,6.3
		C217.2,307.1,213.9,305.3,210.7,303.4z"/>
	<path class="st5" d="M318.2,365.5c1-1,2.1-1.8,3.4-2.3c2.6-1,4.8,0,5.8,2.6c0.6,1.7,0.7,3.5,0.6,5.3
		C324.7,369.2,321.4,367.3,318.2,365.5z"/>
	<path class="st5" d="M333.6,374.4c1-1.4,2.4-2.1,4-2.5c2.2-0.6,3.9,0.3,4.9,2.4c0.8,1.8,0.9,3.8,0.7,5.7
		C340,378.1,336.8,376.2,333.6,374.4z"/>
	<path class="st5" d="M302.9,356.7c1-1.4,2.5-2.2,4.1-2.5c2.4-0.6,4.8,1.2,5.3,3.9c0.2,1.4,0.5,2.8,0.3,4.2
		C309.3,360.4,306.1,358.5,302.9,356.7z"/>
	<path class="st5" d="M287.5,347.7c1-1.1,2.2-1.8,3.5-2.3c2.6-0.9,4.8,0.2,5.7,2.9c0.6,1.7,0.2,3.3,0.3,5
		C293.9,351.5,290.6,349.6,287.5,347.7z"/>
	<path class="st1" d="M182.7,309.2c-0.2,0.2-0.2,0.4-0.1,0.7c-0.1,0.8-0.1,1.7-0.1,2.5c0,0.8-0.2,1.5-1,1.8
		c-0.9,0.3-1.4-0.3-1.8-0.9c-1.4-2.1-2.9-4.3-4.3-6.4c0.9-0.1,1.9,0,2.9-0.2c1.9-0.3,3.3-1.4,4.6-2.8c0.1,0.2,0.1,0.3,0.1,0.4
		c0,0.2,0,0.3-0.1,0.5C182.8,306.2,182.7,307.7,182.7,309.2z"/>
	<path class="st5" d="M201.1,292c1.9,0.1,2.8,1.4,3.4,2.9c0.7,1.7,0.7,3.5,0.6,5.3c-3-1.7-6-3.4-9.1-5.2
		C197.8,294,199.4,293,201.1,292z"/>
	<path class="st0" d="M205.5,387.3c-0.1-0.1-0.2-0.2-0.3-0.3c6.3-3.7,12.6-7.3,18.8-10.9c5.8-3.3,11.6-6.6,17.3-10
		c5.5-3.2,11.1-6.4,16.5-9.6c0.9-0.6,1.9-0.8,2.7-1.7c0.2,0.1,0.3,0.2,0.5,0.3c-1.1,1.2-2.5,1.7-3.9,2.5
		c-10.7,6.2-21.4,12.4-32,18.5c-5.9,3.4-11.8,6.9-17.8,10.2C206.8,386.8,206.1,387,205.5,387.3z"/>
	<path class="st0" d="M261.9,401.9c0-0.1,0-0.2,0-0.3c4.2-2.5,8.4-4.9,12.6-7.4c5-2.9,10-5.8,14.9-8.6c4.1-2.4,8.2-4.7,12.3-7.1
		c0.1,0.1,0.2,0.2,0.3,0.2c-1.2,1.3-2.8,1.8-4.3,2.7c-10.5,6.1-21,12.2-31.5,18.3C264.9,400.5,263.6,401.6,261.9,401.9z"/>
	<path class="st0" d="M147.5,361.7c0,0.1,0,0.2,0,0.3c-0.9,0.2-1.7,0.7-2.5,1.2c-0.6,0.3,0,0.4,0.1,0.7c-0.3,0-0.6,0-0.8,0
		c-2.7,0.9-5,2.7-7.5,4.1c-3.5,2-7.1,4.1-10.6,6.1c-0.2,0.1-0.5,0.4-0.7,0c-0.2-0.3,0.2-0.5,0.4-0.6c1.6-0.9,3.2-1.9,4.8-2.8
		c5.1-3,10.2-5.9,15.3-8.9C146.5,361.6,147,361.4,147.5,361.7z"/>
	<path class="st7" d="M235.9,330.4c0.6-1.2,0.8-2.6,1.6-3.7c1.1,0,1.8,0.7,1.8,1.7c0.1,0.8-0.7,1.5-1.5,1.7
		C237.2,330.1,236.6,330.7,235.9,330.4z"/>
	<path class="st7" d="M251.4,339.1c0.4-1.4,0.8-2.7,1.6-3.9c0.7,0.7,1.9,0.9,1.6,2.3c-0.3,1.3-1.5,1.5-2.7,1.8
		C251.7,339.3,251.5,339.3,251.4,339.1z"/>
	<path class="st7" d="M281.9,357c0.6-1.4,0.9-2.9,1.8-4.1c0.6,0.8,2.1,1.1,1.5,2.4C284.7,356.8,283.3,356.9,281.9,357z"/>
	<path class="st7" d="M266.6,348.1c0.5-1.2,0.8-2.5,1.5-3.7c0.9,0.2,1.8,0.6,1.7,1.7c-0.1,1.2-0.8,1.5-1.8,1.8
		C267.6,348,267.2,348.3,266.6,348.1z"/>
	<path class="st7" d="M235.5,326.2c-0.4,1.3-0.9,2.5-1.4,3.8c-1.1,0-1.8-0.6-2-1.5c-0.2-0.9,0.7-1.4,1.3-1.8
		C234,326.3,234.7,326.1,235.5,326.2z"/>
	<path class="st7" d="M189.4,299.5c-0.5,1.3-0.9,2.6-1.4,3.9c-1.1,0-1.7-0.5-1.9-1.5c-0.2-1.1,0.6-1.4,1.4-1.8
		C188.1,299.8,188.7,299.5,189.4,299.5z"/>
	<path class="st7" d="M250.8,335c-0.5,1.3-0.9,2.6-1.4,3.9c-0.9-0.1-1.7-0.4-1.9-1.4c-0.2-1.2,0.6-1.6,1.5-1.9
		C249.6,335.2,250.1,335,250.8,335z"/>
	<path class="st7" d="M204.8,308.5c-0.4,1.3-0.9,2.5-1.4,3.8c-1.1,0.1-1.7-0.7-2-1.5c-0.2-0.9,0.7-1.3,1.3-1.7
		C203.3,308.6,204,308.3,204.8,308.5z"/>
	<path class="st7" d="M266,344.1c-0.4,1.2-0.8,2.4-1.2,3.6c-1.1,0-2-0.4-2-1.6c-0.1-1.1,0.8-1.5,1.8-1.8
		C265,344.1,265.5,344.1,266,344.1z"/>
	<path class="st7" d="M220.1,317.3c-0.5,1.3-0.9,2.6-1.4,3.9c-0.9-0.1-1.7-0.3-1.9-1.4c-0.2-1.2,0.6-1.6,1.5-1.9
		C218.9,317.5,219.5,317.4,220.1,317.3z"/>
	<path class="st7" d="M312.3,370.4c-0.5,1.3-1,2.5-1.5,3.8c-0.9,0.1-1.5-0.3-1.8-1.1c-0.3-0.9,0.3-1.4,0.9-1.9
		C310.6,370.6,311.5,370.6,312.3,370.4z"/>
	<path class="st7" d="M220.6,321.4c0.4-1.4,0.8-2.7,1.6-3.9c0.7,0.7,2,1,1.6,2.3C223.4,321.1,222,321.5,220.6,321.4z"/>
	<path class="st7" d="M327.9,383.6c0.6-1.3,0.8-2.7,1.7-3.9c0.9,0.2,1.7,0.5,1.7,1.6c0,1.2-0.7,1.5-1.7,1.8
		C329.1,383.4,328.6,383.7,327.9,383.6z"/>
	<path class="st7" d="M312.7,374.8c0.5-1.3,0.8-2.7,1.6-3.9c0.9,0.2,1.6,0.8,1.7,1.7c0.1,0.9-0.7,1.4-1.5,1.7
		C313.9,374.5,313.4,374.9,312.7,374.8z"/>
	<path class="st7" d="M190,303.7c0.4-1.3,0.8-2.7,1.6-3.9c0.7,0.6,2,1,1.5,2.3C192.6,303.4,191.4,303.8,190,303.7z"/>
	<path class="st7" d="M327.4,379.5c-0.4,1.2-0.9,2.4-1.3,3.6c-1.1,0-1.8-0.4-1.9-1.5c-0.1-1,0.7-1.4,1.5-1.8
		C326.3,379.5,326.9,379.5,327.4,379.5z"/>
	<path class="st7" d="M281.6,352.7c-0.5,1.3-1,2.6-1.4,3.9c-0.9-0.1-1.7-0.4-1.9-1.4c-0.2-1.2,0.6-1.6,1.5-1.9
		C280.3,352.9,281,352.8,281.6,352.7z"/>
	<path class="st7" d="M205.4,312.5c0.3-1.3,0.7-2.5,1.4-3.5c0.9,0,1.5,0.5,1.7,1.4c0.2,0.9-0.4,1.4-1.1,1.8
		C206.7,312.5,206,312.6,205.4,312.5z"/>
	<path class="st7" d="M297.5,365.6c0.3-1.3,0.8-2.4,1.4-3.5c0.8,0.2,1.6,0.5,1.7,1.5c0.1,1.2-0.7,1.5-1.5,1.9
		C298.6,365.7,298,365.7,297.5,365.6z"/>
	<path class="st7" d="M296.7,361.8c-0.4,1.2-0.9,2.4-1.3,3.6c-0.8-0.1-1.6-0.1-1.8-1.1c-0.2-1.1,0.2-1.7,1.2-2.2
		C295.5,361.9,296.1,361.7,296.7,361.8z"/>
	<path class="st6" d="M182.8,304.7c0-0.2,0-0.3,0.1-0.5C183,304.5,183,304.6,182.8,304.7z"/>
	<path class="st1" d="M89.2,292.9c0.4-0.5,0.2-1.4,1.1-1.5c-0.3,1.8,0.1,3.4,1.4,4.5c3.8,3.3,6.8,7.3,10.1,10.9
		c1.1,1.2,2.5,1.9,4.2,2.3c0.3,0.1,0.7,0.1,1.1,0.1c1.9-0.1,2.5-1,2-2.8c1.7,0.8,3.2,2,4.4,3.3c1.1,1.2,0.4,2.7-1.2,3.6
		c-2.4,1.2-5.1,1.5-7.8,1c-3.2-0.6-5.6-2.2-6.9-5.3c-1.1-2.7-3-4.4-5.6-5.6c-0.5-0.2-1-0.6-1.4-0.8c-2.3-1.5-2.9-2.9-2.3-5.5
		C88.5,295.8,88.9,294.3,89.2,292.9z"/>
	<path class="st1" d="M109.2,306.5c-0.4,0-0.2-0.3-0.3-0.5C109,306.1,109.4,306.1,109.2,306.5z"/>
	<path class="st1" d="M82.4,314.5c-0.3,0.2-0.3-0.1-0.3-0.3C82.1,314.3,82.2,314.4,82.4,314.5z"/>
	<path class="st1" d="M82.1,314.2c-0.3,0-0.3-0.2-0.3-0.4C81.9,313.9,82,314.1,82.1,314.2z"/>
	<path class="st1" d="M434.3,121.1c-0.8-0.1-1.6,0.1-1.9-0.7c-0.3-0.7,0.3-1.2,0.8-1.6c1.7-1.5,3.7-2.3,5.9-2.3
		c0.5,0,1.1,0.1,1.3,0.6c0.3,0.6-0.2,1.1-0.6,1.4C438.3,120,436.4,120.8,434.3,121.1z"/>
	<path class="st4" d="M257.7,399.7c1.1,0.3,2,0.8,2.7,1.9C259,401.5,258.2,400.9,257.7,399.7L257.7,399.7z"/>
	<path class="st4" d="M257.7,399.7c-0.1,0-0.1-0.1-0.1-0.1C257.7,399.7,257.7,399.7,257.7,399.7L257.7,399.7z"/>
	<path class="st4" d="M208.2,337.7c-1.4,1.2-3.1,1.9-4.6,2.9c-6.4,3.8-12.8,7.4-19.1,11.1c-3.7,2.1-7.3,4.2-11,6.3
		c-0.4,0.3-0.9,0.5-1.4,0.4c-0.2-1.9-1.5-2.9-2.8-3.9c-1.3-1.1-1.5-2-0.4-3.3c0.5-0.6,0.5-0.7-0.7-0.9c0.2-0.8,1-1,1.6-1.3
		c2.2-1.3,4.5-2.6,6.7-3.9c0,0.4,0,0.9,0,1.4c0,0.7,0,1.3-0.9,1.4c-0.2,0-0.4,0.2-0.4,0.4c0.1,0.3,0.3,0.3,0.5,0.3
		c0.9,0.1,1.7,0.1,2-1.2c0.6-2.1,0.8-2.2,3-2.2c0.8,0,1.7,0,2.5,0c1.1,0.1,2.2,0.2,1.9-1.5c0-0.2,0.1-0.4,0.2-0.5
		c1.4-0.7,0.9-1.6,0.5-2.6c-0.3-0.7-0.1-1.1,0.7-1.3c1.9-0.4,3.9-0.2,5.9-0.3c0.8-0.1,1.5,0.1,1.9-0.9c0.2-0.7,1.2-0.5,1.7-0.7
		c0.6-0.2,0.9-0.4,0.8-1.2c-0.2-1,0.5-1.3,1.3-1.4c1-0.2,1.9,0.3,2.9,0.3c0.4,0,0.8,0.4,1.1-0.2c0.2-0.4-0.2-0.7-0.3-1
		c-0.2-0.3-0.8-0.6-0.5-1.1s0.8-0.3,1.3-0.3c0.8-0.1,1.6,0.2,2,0.9C205.4,335.6,206.8,336.7,208.2,337.7z"/>
	<path class="st4" d="M206.4,334.6c1.2,0.5,2.1,0.8,2.8,1.5c0.2,0.2,0.5,0.4,0.2,0.7c-0.1,0.1-0.4,0.2-0.6,0.1
		C207.9,336.3,207.1,335.8,206.4,334.6z"/>
	<path class="st4" d="M195.2,365.1c1.3,0.3,2.2,1.1,2.8,2.1C196.7,366.9,195.6,366.5,195.2,365.1L195.2,365.1z"/>
	<path class="st4" d="M195.2,365.1c-0.1,0-0.1-0.1-0.1-0.1C195.1,365.1,195.1,365.1,195.2,365.1L195.2,365.1z"/>
	<path class="st4" d="M272.3,371.5c-1.6-0.2-2.5-0.9-3.3-2.2C270.4,369.7,271.3,370.3,272.3,371.5z"/>
	<path class="st4" d="M201.4,385.9c1.7,0.6,2.2,0.9,3,2.2C203,387.9,202.2,387.2,201.4,385.9z"/>
	<path class="st4" d="M220.6,343.5c1-1,2.2-1.7,3.6-1.9C223.9,343.7,222.6,344.3,220.6,343.5z"/>
	<path class="st4" d="M201.3,354.9c0.7-1.2,1.7-1.6,3-1.7C204.2,354.9,203.3,355.4,201.3,354.9z"/>
	<path class="st4" d="M145.1,364c-0.1-0.2-0.6-0.3-0.1-0.7c0.8-0.5,1.6-1,2.5-1.2c0.3,1.3-0.1,1.9-1.4,1.9
		C145.8,364,145.5,364,145.1,364z"/>
	<path class="st4" d="M164.8,352.6c-0.1-0.2-0.6-0.3-0.1-0.7c0.9-0.6,1.7-1.2,2.8-1.3c-0.6,0.6-0.6,1.4-0.8,2.2l0,0
		C166.1,352.8,165.4,352.7,164.8,352.6z"/>
	<path class="st4" d="M166.7,352.9c0.1,0,0.1,0.1,0.1,0.1C166.8,353,166.7,352.9,166.7,352.9L166.7,352.9z"/>
</g>
</svg>
